<svg width="506" height="121" viewBox="0 0 506 121" fill="none" xmlns="http://www.w3.org/2000/svg">
<path d="M23.056 120.384C19.184 120.384 15.488 119.739 11.968 118.448C8.44803 117.157 5.57336 115.104 3.34403 112.288C1.11469 109.472 2.60323e-05 105.893 2.60323e-05 101.552C2.60323e-05 100.496 0.234693 99.5573 0.704026 98.736C1.29069 97.7973 1.81869 97.328 2.28803 97.328C3.22669 97.328 3.69603 98.736 3.69603 101.552C3.69603 105.541 5.39736 108.651 8.80003 110.88C11.4987 112.64 15.136 113.52 19.712 113.52C24.288 113.52 29.04 112.699 33.968 111.056C38.896 109.413 43.5894 107.067 48.048 104.016C53.328 100.496 59.1947 95.4507 65.648 88.88C72.2187 82.192 79.024 74.9173 86.064 67.056C80.432 66.4693 74.8 65.824 69.168 65.12C63.6534 64.416 58.08 64.064 52.448 64.064C48.6934 64.064 44.9387 64.4747 41.184 65.296C37.4294 66 34.0267 67.408 30.976 69.52C27.9254 71.632 25.6374 74.7413 24.112 78.848C23.9947 79.3173 23.8187 79.8453 23.584 80.432C23.4667 81.0187 23.408 81.6053 23.408 82.192C23.408 83.3653 23.7014 84.4213 24.288 85.36C24.5227 86.064 24.64 86.4747 24.64 86.592C24.64 87.648 24.1707 88.176 23.232 88.176C22.4107 88.176 21.7654 87.7653 21.296 86.944C20.1227 84.832 19.536 82.1333 19.536 78.848C19.536 72.6293 20.6507 67.8773 22.88 64.592C25.2267 61.3067 28.336 59.0773 32.208 57.904C36.08 56.7307 40.2454 56.144 44.704 56.144C46.6987 56.144 48.752 56.2613 50.864 56.496C53.0934 56.6133 55.264 56.7893 57.376 57.024C62.5387 57.4933 67.8774 58.3147 73.392 59.488C78.9067 60.544 84.4214 61.6587 89.936 62.832C96.0374 55.6747 102.021 48.4587 107.888 41.184C113.872 33.9093 119.445 27.0453 124.608 20.592C129.771 14.0213 134.171 8.38933 137.808 3.69599C137.925 3.344 138.16 3.10933 138.512 2.99199C138.747 2.75733 138.923 2.64 139.04 2.64C140.331 1.936 141.973 1.34933 143.968 0.879998C145.963 0.293332 147.312 -9.53674e-07 148.016 -9.53674e-07C149.189 -9.53674e-07 149.776 0.645331 149.776 1.936C149.776 2.288 149.483 2.93333 148.896 3.87199C143.029 13.8453 137.984 24.0533 133.76 34.496C129.653 44.9387 126.016 55.6747 122.848 66.704L122.496 67.936C123.2 67.936 123.904 67.9947 124.608 68.112C125.429 68.112 126.133 68.112 126.72 68.112C131.765 68.464 136.048 67.936 139.568 66.528C142.149 65.5893 143.909 64.24 144.848 62.48C145.2 62.0107 145.493 61.776 145.728 61.776C146.315 61.776 146.725 62.128 146.96 62.832C147.195 63.4187 147.136 64.0053 146.784 64.592C145.493 66.8213 143.205 68.464 139.92 69.52C138.043 70.3413 135.872 70.8693 133.408 71.104C131.061 71.3387 128.597 71.3973 126.016 71.28H124.96L122.848 71.104H121.792C120.032 77.5573 118.8 84.2453 118.096 91.168C117.979 91.7547 117.92 92.3413 117.92 92.928C117.92 93.3973 117.92 93.9253 117.92 94.512C117.92 101.2 119.739 104.544 123.376 104.544C125.723 104.544 128.48 103.488 131.648 101.376C134.933 99.264 138.219 96.6827 141.504 93.632C144.907 90.5813 147.957 87.5893 150.656 84.656C153.355 81.6053 155.349 79.2 156.64 77.44C156.875 77.2053 157.227 77.088 157.696 77.088C158.869 77.088 159.221 77.7333 158.752 79.024C158.517 79.376 157.52 80.784 155.76 83.248C154 85.5947 151.595 88.4693 148.544 91.872C145.493 95.1573 141.915 98.4427 137.808 101.728C134.523 104.309 131.237 105.952 127.952 106.656C124.784 107.477 122.379 107.888 120.736 107.888C117.451 107.888 114.811 106.421 112.816 103.488C110.939 100.437 110 96.5653 110 91.872C110 88.4693 110.352 84.9493 111.056 81.312C111.76 77.6747 112.581 74.0373 113.52 70.4C110.117 70.048 106.656 69.696 103.136 69.344C99.616 68.8747 96.096 68.4053 92.576 67.936C85.536 76.5013 78.496 84.5387 71.456 92.048C64.5334 99.44 58.0214 105.424 51.92 110C47.344 113.285 42.592 115.808 37.664 117.568C32.8534 119.445 27.984 120.384 23.056 120.384ZM114.224 67.056C116.336 58.8427 118.8 50.6293 121.616 42.416C124.549 34.0853 127.424 26.5173 130.24 19.712L131.12 17.6C126.075 24.64 120.501 32.1493 114.4 40.128C108.416 48.1067 102.315 56.0267 96.096 63.888C99.1467 64.4747 102.197 65.0613 105.248 65.648C108.299 66.1173 111.291 66.5867 114.224 67.056ZM156.36 105.776V49.776H182.6C189.32 49.776 194.44 51.1093 197.96 53.776C201.48 56.3893 203.24 59.9093 203.24 64.336C203.24 67.3227 202.546 69.8827 201.16 72.016C199.773 74.096 197.906 75.7227 195.56 76.896C193.266 78.016 190.76 78.576 188.04 78.576L189.48 75.696C192.626 75.696 195.453 76.2827 197.96 77.456C200.466 78.576 202.44 80.2293 203.88 82.416C205.373 84.6027 206.12 87.3227 206.12 90.576C206.12 95.376 204.28 99.1093 200.6 101.776C196.92 104.443 191.453 105.776 184.2 105.776H156.36ZM166.76 97.616H183.56C187.453 97.616 190.44 96.976 192.52 95.696C194.6 94.416 195.64 92.3627 195.64 89.536C195.64 86.7627 194.6 84.736 192.52 83.456C190.44 82.1227 187.453 81.456 183.56 81.456H165.96V73.376H181.48C185.106 73.376 187.88 72.736 189.8 71.456C191.773 70.176 192.76 68.256 192.76 65.696C192.76 63.0827 191.773 61.136 189.8 59.856C187.88 58.576 185.106 57.936 181.48 57.936H166.76V97.616ZM241.059 106.576C236.686 106.576 232.659 105.856 228.979 104.416C225.299 102.976 222.099 100.976 219.379 98.416C216.659 95.8027 214.552 92.7627 213.059 89.296C211.566 85.776 210.819 81.936 210.819 77.776C210.819 73.616 211.566 69.8027 213.059 66.336C214.552 62.816 216.659 59.776 219.379 57.216C222.099 54.6027 225.299 52.576 228.979 51.136C232.659 49.696 236.659 48.976 240.979 48.976C245.352 48.976 249.352 49.696 252.979 51.136C256.659 52.576 259.859 54.6027 262.579 57.216C265.299 59.776 267.406 62.816 268.899 66.336C270.392 69.8027 271.139 73.616 271.139 77.776C271.139 81.936 270.392 85.776 268.899 89.296C267.406 92.816 265.299 95.856 262.579 98.416C259.859 100.976 256.659 102.976 252.979 104.416C249.352 105.856 245.379 106.576 241.059 106.576ZM240.979 97.456C243.806 97.456 246.419 96.976 248.819 96.016C251.219 95.056 253.299 93.696 255.059 91.936C256.819 90.1227 258.179 88.0427 259.139 85.696C260.152 83.296 260.659 80.656 260.659 77.776C260.659 74.896 260.152 72.2827 259.139 69.936C258.179 67.536 256.819 65.456 255.059 63.696C253.299 61.8827 251.219 60.496 248.819 59.536C246.419 58.576 243.806 58.096 240.979 58.096C238.152 58.096 235.539 58.576 233.139 59.536C230.792 60.496 228.712 61.8827 226.899 63.696C225.139 65.456 223.752 67.536 222.739 69.936C221.779 72.2827 221.299 74.896 221.299 77.776C221.299 80.6027 221.779 83.216 222.739 85.616C223.752 88.016 225.139 90.1227 226.899 91.936C228.659 93.696 230.739 95.056 233.139 96.016C235.539 96.976 238.152 97.456 240.979 97.456ZM303.843 106.576C296.163 106.576 290.136 104.416 285.763 100.096C281.443 95.776 279.283 89.536 279.283 81.376V49.776H289.683V80.976C289.683 86.736 290.909 90.9227 293.363 93.536C295.869 96.1493 299.389 97.456 303.923 97.456C308.456 97.456 311.949 96.1493 314.403 93.536C316.856 90.9227 318.083 86.736 318.083 80.976V49.776H328.323V81.376C328.323 89.536 326.136 95.776 321.763 100.096C317.443 104.416 311.469 106.576 303.843 106.576ZM350.832 105.776V58.576H332.272V49.776H379.792V58.576H361.232V105.776H350.832ZM428.987 106.576C421.307 106.576 415.28 104.416 410.907 100.096C406.587 95.776 404.427 89.536 404.427 81.376V49.776H414.827V80.976C414.827 86.736 416.053 90.9227 418.507 93.536C421.013 96.1493 424.533 97.456 429.067 97.456C433.6 97.456 437.093 96.1493 439.547 93.536C442 90.9227 443.227 86.736 443.227 80.976V49.776H453.467V81.376C453.467 89.536 451.28 95.776 446.907 100.096C442.587 104.416 436.613 106.576 428.987 106.576ZM482.992 106.576C478.618 106.576 474.432 105.963 470.432 104.736C466.432 103.456 463.258 101.829 460.912 99.856L464.512 91.776C466.752 93.536 469.525 95.0027 472.832 96.176C476.138 97.3493 479.525 97.936 482.992 97.936C485.925 97.936 488.298 97.616 490.112 96.976C491.925 96.336 493.258 95.4827 494.112 94.416C494.965 93.296 495.392 92.0427 495.392 90.656C495.392 88.9493 494.778 87.5893 493.552 86.576C492.325 85.5093 490.725 84.6827 488.752 84.096C486.832 83.456 484.672 82.8693 482.272 82.336C479.925 81.8027 477.552 81.1893 475.152 80.496C472.805 79.7493 470.645 78.816 468.672 77.696C466.752 76.5227 465.178 74.976 463.952 73.056C462.725 71.136 462.112 68.6827 462.112 65.696C462.112 62.656 462.912 59.8827 464.512 57.376C466.165 54.816 468.645 52.7893 471.952 51.296C475.312 49.7493 479.552 48.976 484.672 48.976C488.032 48.976 491.365 49.4027 494.672 50.256C497.978 51.1093 500.858 52.336 503.312 53.936L500.032 62.016C497.525 60.5227 494.938 59.4293 492.272 58.736C489.605 57.9893 487.045 57.616 484.592 57.616C481.712 57.616 479.365 57.9627 477.552 58.656C475.792 59.3493 474.485 60.256 473.632 61.376C472.832 62.496 472.432 63.776 472.432 65.216C472.432 66.9227 473.018 68.3093 474.192 69.376C475.418 70.3893 476.992 71.1893 478.912 71.776C480.885 72.3627 483.072 72.9493 485.472 73.536C487.872 74.0693 490.245 74.6827 492.592 75.376C494.992 76.0693 497.152 76.976 499.072 78.096C501.045 79.216 502.618 80.736 503.792 82.656C505.018 84.576 505.632 87.0027 505.632 89.936C505.632 92.9227 504.805 95.696 503.152 98.256C501.552 100.763 499.072 102.789 495.712 104.336C492.352 105.829 488.112 106.576 482.992 106.576Z" fill="#620DD9"/>
</svg>
