<svg width="1287" height="276" viewBox="0 0 1287 276" fill="none" xmlns="http://www.w3.org/2000/svg">
<path d="M537.019 171V148.58H528.203V144.4H550.775V148.58H541.959V171H537.019ZM573.178 144.4H578.118V171H573.178V159.6H559.422V171H554.482V144.4H559.422V155.382H573.178V144.4ZM590.186 166.858H605.196V171H585.246V144.4H604.664V148.542H590.186V155.458H603.03V159.524H590.186V166.858ZM639.369 165.68V157.396H644.043V167.998C641.269 170.24 637.393 171.38 633.631 171.38C625.385 171.38 619.305 165.642 619.305 157.7C619.305 149.758 625.385 144.02 633.707 144.02C638.153 144.02 641.877 145.502 644.385 148.352L641.269 151.392C639.179 149.302 636.785 148.352 633.935 148.352C628.273 148.352 624.283 152.19 624.283 157.7C624.283 163.096 628.273 167.048 633.897 167.048C635.797 167.048 637.659 166.668 639.369 165.68ZM670.47 171L667.81 164.844H654.51L651.888 171H646.796L658.766 144.4H663.63L675.638 171H670.47ZM656.182 160.968H666.176L661.16 149.34L656.182 160.968ZM679.021 171V144.4H683.961V166.82H697.869V171H679.021ZM701.769 171V144.4H706.709V166.82H720.617V171H701.769ZM729.457 166.858H744.467V171H724.517V144.4H743.935V148.542H729.457V155.458H742.301V159.524H729.457V166.858ZM772.698 171H767.378L761.944 163.21C761.602 163.248 761.26 163.248 760.918 163.248H754.914V171H749.974V144.4H760.918C767.91 144.4 772.242 147.972 772.242 153.862C772.242 157.89 770.19 160.854 766.58 162.26L772.698 171ZM767.264 153.862C767.264 150.518 765.022 148.58 760.69 148.58H754.914V159.182H760.69C765.022 159.182 767.264 157.206 767.264 153.862ZM799.286 144.4L788.874 161.614V171H783.934V161.69L773.484 144.4H778.766L786.556 157.358L794.422 144.4H799.286Z" fill="#030200"/>
<path d="M454.765 137.608C450.893 137.608 447.197 136.963 443.677 135.672C440.157 134.381 437.283 132.328 435.053 129.512C432.824 126.696 431.709 123.117 431.709 118.776C431.709 117.72 431.944 116.781 432.413 115.96C433 115.021 433.528 114.552 433.997 114.552C434.936 114.552 435.405 115.96 435.405 118.776C435.405 122.765 437.107 125.875 440.509 128.104C443.208 129.864 446.845 130.744 451.421 130.744C455.997 130.744 460.749 129.923 465.677 128.28C470.605 126.637 475.299 124.291 479.757 121.24C485.037 117.72 490.904 112.675 497.357 106.104C503.928 99.416 510.733 92.1413 517.773 84.28C512.141 83.6933 506.509 83.048 500.877 82.344C495.363 81.64 489.789 81.288 484.157 81.288C480.403 81.288 476.648 81.6987 472.893 82.52C469.139 83.224 465.736 84.632 462.685 86.744C459.635 88.856 457.347 91.9653 455.821 96.072C455.704 96.5413 455.528 97.0693 455.293 97.656C455.176 98.2427 455.117 98.8293 455.117 99.416C455.117 100.589 455.411 101.645 455.997 102.584C456.232 103.288 456.349 103.699 456.349 103.816C456.349 104.872 455.88 105.4 454.941 105.4C454.12 105.4 453.475 104.989 453.005 104.168C451.832 102.056 451.245 99.3573 451.245 96.072C451.245 89.8533 452.36 85.1013 454.589 81.816C456.936 78.5307 460.045 76.3013 463.917 75.128C467.789 73.9547 471.955 73.368 476.413 73.368C478.408 73.368 480.461 73.4853 482.573 73.72C484.803 73.8373 486.973 74.0133 489.085 74.248C494.248 74.7173 499.587 75.5387 505.101 76.712C510.616 77.768 516.131 78.8827 521.645 80.056C527.747 72.8987 533.731 65.6827 539.597 58.408C545.581 51.1333 551.155 44.2693 556.317 37.816C561.48 31.2453 565.88 25.6133 569.517 20.92C569.635 20.568 569.869 20.3333 570.221 20.216C570.456 19.9813 570.632 19.864 570.749 19.864C572.04 19.16 573.683 18.5733 575.677 18.104C577.672 17.5173 579.021 17.224 579.725 17.224C580.899 17.224 581.485 17.8693 581.485 19.16C581.485 19.512 581.192 20.1573 580.605 21.096C574.739 31.0693 569.693 41.2773 565.469 51.72C561.363 62.1627 557.725 72.8987 554.557 83.928L554.205 85.16C554.909 85.16 555.613 85.2187 556.317 85.336C557.139 85.336 557.843 85.336 558.429 85.336C563.475 85.688 567.757 85.16 571.277 83.752C573.859 82.8133 575.619 81.464 576.557 79.704C576.909 79.2347 577.203 79 577.437 79C578.024 79 578.435 79.352 578.669 80.056C578.904 80.6427 578.845 81.2293 578.493 81.816C577.203 84.0453 574.915 85.688 571.629 86.744C569.752 87.5653 567.581 88.0933 565.117 88.328C562.771 88.5627 560.307 88.6213 557.725 88.504H556.669L554.557 88.328H553.501C551.741 94.7813 550.509 101.469 549.805 108.392C549.688 108.979 549.629 109.565 549.629 110.152C549.629 110.621 549.629 111.149 549.629 111.736C549.629 118.424 551.448 121.768 555.085 121.768C557.432 121.768 560.189 120.712 563.357 118.6C566.643 116.488 569.928 113.907 573.213 110.856C576.616 107.805 579.667 104.813 582.365 101.88C585.064 98.8293 587.059 96.424 588.349 94.664C588.584 94.4293 588.936 94.312 589.405 94.312C590.579 94.312 590.931 94.9573 590.461 96.248C590.227 96.6 589.229 98.008 587.469 100.472C585.709 102.819 583.304 105.693 580.253 109.096C577.203 112.381 573.624 115.667 569.517 118.952C566.232 121.533 562.947 123.176 559.661 123.88C556.493 124.701 554.088 125.112 552.445 125.112C549.16 125.112 546.52 123.645 544.525 120.712C542.648 117.661 541.709 113.789 541.709 109.096C541.709 105.693 542.061 102.173 542.765 98.536C543.469 94.8987 544.291 91.2613 545.229 87.624C541.827 87.272 538.365 86.92 534.845 86.568C531.325 86.0987 527.805 85.6293 524.285 85.16C517.245 93.7253 510.205 101.763 503.165 109.272C496.243 116.664 489.731 122.648 483.629 127.224C479.053 130.509 474.301 133.032 469.373 134.792C464.563 136.669 459.693 137.608 454.765 137.608ZM545.933 84.28C548.045 76.0667 550.509 67.8533 553.325 59.64C556.259 51.3093 559.133 43.7413 561.949 36.936L562.829 34.824C557.784 41.864 552.211 49.3733 546.109 57.352C540.125 65.3307 534.024 73.2507 527.805 81.112C530.856 81.6987 533.907 82.2853 536.957 82.872C540.008 83.3413 543 83.8107 545.933 84.28ZM625.989 93.88C631.989 95.8 636.069 100.52 636.069 107.8C636.069 117.4 628.549 123 614.149 123H586.309V67H612.549C625.989 67 633.189 72.68 633.189 81.56C633.189 87.32 630.309 91.56 625.989 93.88ZM611.429 75.16H596.709V90.6H611.429C618.629 90.6 622.709 88.04 622.709 82.92C622.709 77.72 618.629 75.16 611.429 75.16ZM613.509 114.84C621.349 114.84 625.589 112.36 625.589 106.76C625.589 101.16 621.349 98.68 613.509 98.68H596.709V114.84H613.509ZM673.328 123.8C655.968 123.8 643.168 111.56 643.168 95C643.168 78.44 655.968 66.2 673.328 66.2C690.688 66.2 703.488 78.36 703.488 95C703.488 111.64 690.688 123.8 673.328 123.8ZM673.328 114.68C684.608 114.68 693.008 106.44 693.008 95C693.008 83.56 684.608 75.32 673.328 75.32C662.048 75.32 653.648 83.56 653.648 95C653.648 106.44 662.048 114.68 673.328 114.68ZM738.592 123.8C723.232 123.8 714.032 114.92 714.032 98.6V67H724.432V98.2C724.432 109.72 729.632 114.68 738.672 114.68C747.712 114.68 752.832 109.72 752.832 98.2V67H763.072V98.6C763.072 114.92 753.872 123.8 738.592 123.8ZM787.982 123V75.8H769.422V67H816.942V75.8H798.382V123H787.982Z" fill="#030200"/>
</svg>
