<svg width="606" height="191" viewBox="0 0 606 191" fill="none" xmlns="http://www.w3.org/2000/svg">
<path d="M23.056 120.384C19.184 120.384 15.488 119.739 11.968 118.448C8.44803 117.157 5.57336 115.104 3.34403 112.288C1.11469 109.472 2.60323e-05 105.893 2.60323e-05 101.552C2.60323e-05 100.496 0.234693 99.5573 0.704026 98.736C1.29069 97.7973 1.81869 97.328 2.28803 97.328C3.22669 97.328 3.69603 98.736 3.69603 101.552C3.69603 105.541 5.39736 108.651 8.80003 110.88C11.4987 112.64 15.136 113.52 19.712 113.52C24.288 113.52 29.04 112.699 33.968 111.056C38.896 109.413 43.5894 107.067 48.048 104.016C53.328 100.496 59.1947 95.4507 65.648 88.88C72.2187 82.192 79.024 74.9173 86.064 67.056C80.432 66.4693 74.8 65.824 69.168 65.12C63.6534 64.416 58.08 64.064 52.448 64.064C48.6934 64.064 44.9387 64.4747 41.184 65.296C37.4294 66 34.0267 67.408 30.976 69.52C27.9254 71.632 25.6374 74.7413 24.112 78.848C23.9947 79.3173 23.8187 79.8453 23.584 80.432C23.4667 81.0187 23.408 81.6053 23.408 82.192C23.408 83.3653 23.7014 84.4213 24.288 85.36C24.5227 86.064 24.64 86.4747 24.64 86.592C24.64 87.648 24.1707 88.176 23.232 88.176C22.4107 88.176 21.7654 87.7653 21.296 86.944C20.1227 84.832 19.536 82.1333 19.536 78.848C19.536 72.6293 20.6507 67.8773 22.88 64.592C25.2267 61.3067 28.336 59.0773 32.208 57.904C36.08 56.7307 40.2454 56.144 44.704 56.144C46.6987 56.144 48.752 56.2613 50.864 56.496C53.0934 56.6133 55.264 56.7893 57.376 57.024C62.5387 57.4933 67.8774 58.3147 73.392 59.488C78.9067 60.544 84.4214 61.6587 89.936 62.832C96.0374 55.6747 102.021 48.4587 107.888 41.184C113.872 33.9093 119.445 27.0453 124.608 20.592C129.771 14.0213 134.171 8.38933 137.808 3.69599C137.925 3.344 138.16 3.10933 138.512 2.99199C138.747 2.75733 138.923 2.64 139.04 2.64C140.331 1.936 141.973 1.34933 143.968 0.879998C145.963 0.293332 147.312 -9.53674e-07 148.016 -9.53674e-07C149.189 -9.53674e-07 149.776 0.645331 149.776 1.936C149.776 2.288 149.483 2.93333 148.896 3.87199C143.029 13.8453 137.984 24.0533 133.76 34.496C129.653 44.9387 126.016 55.6747 122.848 66.704L122.496 67.936C123.2 67.936 123.904 67.9947 124.608 68.112C125.429 68.112 126.133 68.112 126.72 68.112C131.765 68.464 136.048 67.936 139.568 66.528C142.149 65.5893 143.909 64.24 144.848 62.48C145.2 62.0107 145.493 61.776 145.728 61.776C146.315 61.776 146.725 62.128 146.96 62.832C147.195 63.4187 147.136 64.0053 146.784 64.592C145.493 66.8213 143.205 68.464 139.92 69.52C138.043 70.3413 135.872 70.8693 133.408 71.104C131.061 71.3387 128.597 71.3973 126.016 71.28H124.96L122.848 71.104H121.792C120.032 77.5573 118.8 84.2453 118.096 91.168C117.979 91.7547 117.92 92.3413 117.92 92.928C117.92 93.3973 117.92 93.9253 117.92 94.512C117.92 101.2 119.739 104.544 123.376 104.544C125.723 104.544 128.48 103.488 131.648 101.376C134.933 99.264 138.219 96.6827 141.504 93.632C144.907 90.5813 147.957 87.5893 150.656 84.656C153.355 81.6053 155.349 79.2 156.64 77.44C156.875 77.2053 157.227 77.088 157.696 77.088C158.869 77.088 159.221 77.7333 158.752 79.024C158.517 79.376 157.52 80.784 155.76 83.248C154 85.5947 151.595 88.4693 148.544 91.872C145.493 95.1573 141.915 98.4427 137.808 101.728C134.523 104.309 131.237 105.952 127.952 106.656C124.784 107.477 122.379 107.888 120.736 107.888C117.451 107.888 114.811 106.421 112.816 103.488C110.939 100.437 110 96.5653 110 91.872C110 88.4693 110.352 84.9493 111.056 81.312C111.76 77.6747 112.581 74.0373 113.52 70.4C110.117 70.048 106.656 69.696 103.136 69.344C99.616 68.8747 96.096 68.4053 92.576 67.936C85.536 76.5013 78.496 84.5387 71.456 92.048C64.5334 99.44 58.0214 105.424 51.92 110C47.344 113.285 42.592 115.808 37.664 117.568C32.8534 119.445 27.984 120.384 23.056 120.384ZM114.224 67.056C116.336 58.8427 118.8 50.6293 121.616 42.416C124.549 34.0853 127.424 26.5173 130.24 19.712L131.12 17.6C126.075 24.64 120.501 32.1493 114.4 40.128C108.416 48.1067 102.315 56.0267 96.096 63.888C99.1467 64.4747 102.197 65.0613 105.248 65.648C108.299 66.1173 111.291 66.5867 114.224 67.056ZM155.8 105.776V60.016H175.56C179.666 60.016 183.213 60.6827 186.2 62.016C189.186 63.296 191.48 65.1627 193.08 67.616C194.733 70.0693 195.56 73.0293 195.56 76.496C195.56 79.9627 194.733 82.9493 193.08 85.456C191.48 87.9093 189.186 89.8027 186.2 91.136C183.213 92.416 179.666 93.056 175.56 93.056H161.4L165.88 88.416V105.776H155.8ZM165.88 89.616L162.2 84.896H174.84C178.36 84.896 181 84.176 182.76 82.736C184.52 81.2427 185.4 79.1627 185.4 76.496C185.4 73.8293 184.52 71.776 182.76 70.336C181 68.896 178.36 68.176 174.84 68.176H162.2L165.88 63.536V89.616ZM203.712 105.776V60.016H223.472C227.579 60.016 231.125 60.6827 234.112 62.016C237.099 63.296 239.392 65.1627 240.992 67.616C242.645 70.0693 243.472 73.0293 243.472 76.496C243.472 79.9627 242.645 82.9493 240.992 85.456C239.392 87.9093 237.099 89.8027 234.112 91.136C231.125 92.416 227.579 93.056 223.472 93.056H209.312L213.792 88.416V105.776H203.712ZM213.792 89.616L210.112 84.896H222.752C226.272 84.896 228.912 84.176 230.672 82.736C232.432 81.2427 233.312 79.1627 233.312 76.496C233.312 73.8293 232.432 71.776 230.672 70.336C228.912 68.896 226.272 68.176 222.752 68.176H210.112L213.792 63.536V89.616ZM251.625 105.776V60.016H261.705V97.616H285.225V105.776H251.625ZM290.397 105.776V60.016H300.477V105.776H290.397ZM333.341 106.576C328.541 106.576 324.248 105.563 320.461 103.536C316.674 101.456 313.688 98.6293 311.501 95.056C309.314 91.4827 308.221 87.4293 308.221 82.896C308.221 78.3627 309.314 74.336 311.501 70.816C313.688 67.2427 316.674 64.4427 320.461 62.416C324.248 60.336 328.541 59.296 333.341 59.296C337.501 59.296 341.128 59.936 344.221 61.216C347.368 62.4427 350.034 64.3893 352.221 67.056L345.661 73.296C344.061 71.4293 342.248 70.0693 340.221 69.216C338.194 68.3093 336.008 67.856 333.661 67.856C330.728 67.856 328.088 68.496 325.741 69.776C323.448 71.056 321.634 72.8427 320.301 75.136C319.021 77.376 318.381 79.9627 318.381 82.896C318.381 85.8293 319.021 88.4427 320.301 90.736C321.634 93.0293 323.448 94.816 325.741 96.096C328.088 97.376 330.728 98.016 333.661 98.016C336.008 98.016 338.194 97.5627 340.221 96.656C342.248 95.7493 344.061 94.3627 345.661 92.496L352.221 98.816C350.034 101.429 347.368 103.376 344.221 104.656C341.074 105.936 337.448 106.576 333.341 106.576ZM350.424 105.776L371.224 60.016H381.224L401.944 105.776H391.944L374.504 65.136H377.864L360.264 105.776H350.424ZM360.744 95.856L363.464 88.176H387.304L390.024 95.856H360.744ZM411.675 105.776V68.256H396.635V60.016H436.795V68.256H421.755V105.776H411.675ZM441.656 105.776V60.016H451.736V105.776H441.656ZM484.76 106.576C479.907 106.576 475.56 105.563 471.72 103.536C467.934 101.456 464.947 98.6293 462.76 95.056C460.574 91.4827 459.48 87.4293 459.48 82.896C459.48 78.3627 460.574 74.336 462.76 70.816C464.947 67.2427 467.934 64.4427 471.72 62.416C475.56 60.336 479.88 59.296 484.68 59.296C489.534 59.296 493.854 60.336 497.64 62.416C501.48 64.4427 504.494 67.2427 506.68 70.816C508.867 74.336 509.96 78.3627 509.96 82.896C509.96 87.4293 508.867 91.4827 506.68 95.056C504.494 98.6293 501.48 101.456 497.64 103.536C493.854 105.563 489.56 106.576 484.76 106.576ZM484.68 98.016C487.614 98.016 490.2 97.376 492.44 96.096C494.734 94.7627 496.52 92.9493 497.8 90.656C499.08 88.3627 499.72 85.776 499.72 82.896C499.72 79.9627 499.054 77.376 497.72 75.136C496.44 72.8427 494.68 71.056 492.44 69.776C490.2 68.496 487.64 67.856 484.76 67.856C481.88 67.856 479.294 68.496 477 69.776C474.707 71.056 472.894 72.8427 471.56 75.136C470.28 77.376 469.64 79.9627 469.64 82.896C469.64 85.776 470.28 88.3627 471.56 90.656C472.894 92.9493 474.707 94.7627 477 96.096C479.294 97.376 481.854 98.016 484.68 98.016ZM517.637 105.776V60.016H525.957L553.477 93.456H549.797V60.016H559.797V105.776H551.477L523.877 72.336H527.637V105.776H517.637ZM585.571 106.576C581.998 106.576 578.478 106.096 575.011 105.136C571.598 104.176 568.851 102.923 566.771 101.376L570.531 93.536C572.451 94.976 574.798 96.1227 577.571 96.976C580.344 97.8293 583.171 98.256 586.051 98.256C589.464 98.256 591.838 97.7493 593.171 96.736C594.504 95.7227 595.171 94.5227 595.171 93.136C595.171 91.856 594.664 90.8427 593.651 90.096C592.691 89.3493 591.384 88.7627 589.731 88.336C588.131 87.856 586.371 87.4293 584.451 87.056C582.531 86.6293 580.611 86.1493 578.691 85.616C576.771 85.0827 575.011 84.336 573.411 83.376C571.811 82.416 570.504 81.136 569.491 79.536C568.531 77.936 568.051 75.9093 568.051 73.456C568.051 70.6293 568.851 68.1493 570.451 66.016C572.051 63.8827 574.291 62.2293 577.171 61.056C580.104 59.8827 583.544 59.296 587.491 59.296C590.318 59.296 593.144 59.616 595.971 60.256C598.851 60.8427 601.358 61.8293 603.491 63.216L600.051 71.056C598.024 69.7227 595.891 68.816 593.651 68.336C591.464 67.8027 589.304 67.536 587.171 67.536C583.971 67.536 581.651 68.0427 580.211 69.056C578.824 70.0693 578.131 71.3493 578.131 72.896C578.131 74.176 578.611 75.1893 579.571 75.936C580.584 76.6827 581.891 77.296 583.491 77.776C585.091 78.2027 586.851 78.6027 588.771 78.976C590.744 79.3493 592.664 79.8293 594.531 80.416C596.451 80.9493 598.211 81.696 599.811 82.656C601.464 83.5627 602.771 84.7893 603.731 86.336C604.691 87.8827 605.171 89.856 605.171 92.256C605.171 95.136 604.371 97.6427 602.771 99.776C601.224 101.909 599.011 103.589 596.131 104.816C593.251 105.989 589.731 106.576 585.571 106.576ZM128.265 190.576C123.411 190.576 119.065 189.563 115.225 187.536C111.438 185.456 108.451 182.629 106.265 179.056C104.078 175.483 102.985 171.429 102.985 166.896C102.985 162.363 104.078 158.336 106.265 154.816C108.451 151.243 111.438 148.443 115.225 146.416C119.065 144.336 123.385 143.296 128.185 143.296C133.038 143.296 137.358 144.336 141.145 146.416C144.985 148.443 147.998 151.243 150.185 154.816C152.371 158.336 153.465 162.363 153.465 166.896C153.465 171.429 152.371 175.483 150.185 179.056C147.998 182.629 144.985 185.456 141.145 187.536C137.358 189.563 133.065 190.576 128.265 190.576ZM128.185 182.016C131.118 182.016 133.705 181.376 135.945 180.096C138.238 178.763 140.025 176.949 141.305 174.656C142.585 172.363 143.225 169.776 143.225 166.896C143.225 163.963 142.558 161.376 141.225 159.136C139.945 156.843 138.185 155.056 135.945 153.776C133.705 152.496 131.145 151.856 128.265 151.856C125.385 151.856 122.798 152.496 120.505 153.776C118.211 155.056 116.398 156.843 115.065 159.136C113.785 161.376 113.145 163.963 113.145 166.896C113.145 169.776 113.785 172.363 115.065 174.656C116.398 176.949 118.211 178.763 120.505 180.096C122.798 181.376 125.358 182.016 128.185 182.016ZM161.142 189.776V144.016H180.902C185.008 144.016 188.555 144.683 191.542 146.016C194.528 147.296 196.822 149.163 198.422 151.616C200.075 154.069 200.902 157.029 200.902 160.496C200.902 163.963 200.075 166.949 198.422 169.456C196.822 171.909 194.528 173.803 191.542 175.136C188.555 176.416 185.008 177.056 180.902 177.056H166.742L171.222 172.416V189.776H161.142ZM171.222 173.616L167.542 168.896H180.182C183.702 168.896 186.342 168.176 188.102 166.736C189.862 165.243 190.742 163.163 190.742 160.496C190.742 157.829 189.862 155.776 188.102 154.336C186.342 152.896 183.702 152.176 180.182 152.176H167.542L171.222 147.536V173.616ZM209.054 189.776V144.016H243.694V152.176H219.134V181.696H244.574V189.776H209.054ZM217.774 170.496V162.656H240.974V170.496H217.774ZM252.592 189.776V144.016H260.912L288.432 177.456H284.752V144.016H294.752V189.776H286.432L258.832 156.336H262.592V189.776H252.592ZM325.995 189.776V144.016H334.315L361.835 177.456H358.155V144.016H368.155V189.776H359.835L332.235 156.336H335.995V189.776H325.995ZM401.208 190.576C396.355 190.576 392.008 189.563 388.168 187.536C384.382 185.456 381.395 182.629 379.208 179.056C377.022 175.483 375.928 171.429 375.928 166.896C375.928 162.363 377.022 158.336 379.208 154.816C381.395 151.243 384.382 148.443 388.168 146.416C392.008 144.336 396.328 143.296 401.128 143.296C405.982 143.296 410.302 144.336 414.088 146.416C417.928 148.443 420.942 151.243 423.128 154.816C425.315 158.336 426.408 162.363 426.408 166.896C426.408 171.429 425.315 175.483 423.128 179.056C420.942 182.629 417.928 185.456 414.088 187.536C410.302 189.563 406.008 190.576 401.208 190.576ZM401.128 182.016C404.062 182.016 406.648 181.376 408.888 180.096C411.182 178.763 412.968 176.949 414.248 174.656C415.528 172.363 416.168 169.776 416.168 166.896C416.168 163.963 415.502 161.376 414.168 159.136C412.888 156.843 411.128 155.056 408.888 153.776C406.648 152.496 404.088 151.856 401.208 151.856C398.328 151.856 395.742 152.496 393.448 153.776C391.155 155.056 389.342 156.843 388.008 159.136C386.728 161.376 386.088 163.963 386.088 166.896C386.088 169.776 386.728 172.363 388.008 174.656C389.342 176.949 391.155 178.763 393.448 180.096C395.742 181.376 398.302 182.016 401.128 182.016ZM442.927 189.776L427.647 144.016H438.047L451.407 184.976H446.127L460.127 144.016H469.567L482.927 184.976H477.887L491.567 144.016H501.327L486.047 189.776H475.247L463.167 153.536H465.967L453.807 189.776H442.927Z" fill="#F6F6F6"/>
</svg>
