<?xml version="1.0" encoding="UTF-8"?>
<!-- Generator: Adobe Illustrator 27.9.0, SVG Export Plug-In . SVG Version: 6.00 Build 0)  -->
<svg version="1.0" id="Layer_1" xmlns="http://www.w3.org/2000/svg" xmlns:xlink="http://www.w3.org/1999/xlink" x="0px" y="0px" viewBox="0 0 3157.7 630" style="enable-background:new 0 0 3157.7 630;" xml:space="preserve">
<style type="text/css">
	.st0{fill:#231F20;}
</style>
<g>
	<polygon class="st0" points="315,360 495,180 315,0 315,360 135,180 225,450 315,360  "/>
	<polygon class="st0" points="585,270 495,180 405,450  "/>
	<polygon class="st0" points="585,270 450,495 630,315  "/>
	<polygon class="st0" points="315,360 315,540 405,450  "/>
	<polygon class="st0" points="405,450 360,585 450,495  "/>
	<polygon class="st0" points="180,495 225,450 45,270  "/>
	<polygon class="st0" points="270,585 315,540 225,450  "/>
	<polygon class="st0" points="315,630 360,585 315,540  "/>
</g>
<path class="st0" d="M821.6,272.9c-52.6,0-83.2-39.5-83.2-95.4c0-56.9,33.4-94.6,85.3-94.6c38,0,68.6,22.5,76.4,61.7h-25  c-5.6-22.8-23.3-40-52.6-40c-32.4,0-57.7,25.3-57.7,72.9c0,46.3,24.3,73.6,58.4,73.6c29.1,0,47.1-16.4,52.9-40h25  C893,251.7,861.3,272.9,821.6,272.9z"/>
<path class="st0" d="M1009.1,185.9v-3.3c0-24.8-13.9-33.1-30.9-33.1c-19,0-30.1,10.4-31.1,27.1h-23.8c2.3-29.3,28.1-45.8,54.7-45.8  c37.4,0,54.4,18,54.1,56.2l-0.3,31.4c-0.3,22.8,1,38.5,3.5,51.4h-23.3c-0.8-5.1-1.5-10.6-1.8-18.7c-8.3,13.9-22.5,22-46.6,22  c-25.6,0-46.8-14.2-46.8-39.2C917,201.6,953.2,192.2,1009.1,185.9z M942.6,233.2c0,12.9,9.9,21.5,26.3,21.5c21.5,0,42-9.9,42-42  v-8.6C969.1,208.4,942.6,214.5,942.6,233.2z"/>
<path class="st0" d="M1064.3,269.6V86.2h23v183.4H1064.3z"/>
<path class="st0" d="M1121.4,269.6V86.2h23v183.4H1121.4z"/>
<path class="st0" d="M1262.6,185.9v-3.3c0-24.8-13.9-33.1-30.9-33.1c-19,0-30.1,10.4-31.1,27.1h-23.8c2.3-29.3,28.1-45.8,54.7-45.8  c37.4,0,54.4,18,54.1,56.2l-0.3,31.4c-0.3,22.8,1,38.5,3.5,51.4h-23.3c-0.8-5.1-1.5-10.6-1.8-18.7c-8.4,13.9-22.5,22-46.6,22  c-25.6,0-46.8-14.2-46.8-39.2C1170.5,201.6,1206.7,192.2,1262.6,185.9z M1196.1,233.2c0,12.9,9.9,21.5,26.3,21.5  c21.5,0,42-9.9,42-42v-8.6C1222.6,208.4,1196.1,214.5,1196.1,233.2z"/>
<path class="st0" d="M1432.4,133.5v117.9c0,27.8-5.1,39.2-12.9,47.8c-9.9,11.4-26.8,18-47.1,18c-30.9,0-51.6-14.2-55.9-41.7h24.5  c3,12.1,10.4,21.5,31.6,21.5c12.4,0,21.8-3.5,27.8-10.1c5.1-5.3,8.9-11.6,8.9-30.1v-12.9c-8.3,14.4-21.5,23.5-43.3,23.5  c-30.1,0-57.7-24.3-57.7-68.1c0-43.5,27.6-68.1,57.7-68.1c21.8,0,34.9,9.4,43.3,23.8v-21.5H1432.4z M1333.5,199.3  c0,31.1,15.9,48.6,38.5,48.6c20.5,0,38.5-13.9,38.5-48.6c0-34.4-18-48.3-38.5-48.3C1349.4,151,1333.5,168.4,1333.5,199.3z"/>
<path class="st0" d="M1533.6,131.2c32.9,0,44.8,21.3,44.8,52.4v86h-23v-79.2c0-21-3.5-39.2-29.9-39.2c-22.3,0-35.9,15.4-35.9,44.5  v73.9h-23V86.2h23V154C1497.4,141.1,1510.6,131.2,1533.6,131.2z"/>
<path class="st0" d="M1694.5,185.9v-3.3c0-24.8-13.9-33.1-30.9-33.1c-19,0-30.1,10.4-31.1,27.1h-23.8c2.3-29.3,28.1-45.8,54.7-45.8  c37.4,0,54.4,18,54.1,56.2l-0.3,31.4c-0.3,22.8,1,38.5,3.5,51.4h-23.3c-0.8-5.1-1.5-10.6-1.8-18.7c-8.4,13.9-22.5,22-46.6,22  c-25.6,0-46.8-14.2-46.8-39.2C1602.4,201.6,1638.6,192.2,1694.5,185.9z M1628,233.2c0,12.9,9.9,21.5,26.3,21.5c21.5,0,42-9.9,42-42  v-8.6C1654.5,208.4,1628,214.5,1628,233.2z"/>
<path class="st0" d="M1815.5,131.2c32.9,0,44.8,21.3,44.8,52.4v86h-23v-79.2c0-21-3.5-39.2-29.9-39.2c-22.3,0-35.9,15.4-35.9,44.5  v73.9h-23V133.5h23V154C1779.3,141.1,1792.4,131.2,1815.5,131.2z"/>
<path class="st0" d="M1953.6,269.6V86.2h25.8v183.4H1953.6z"/>
<path class="st0" d="M2084.2,131.2c32.9,0,44.8,21.3,44.8,52.4v86h-23v-79.2c0-21-3.5-39.2-29.9-39.2c-22.3,0-35.9,15.4-35.9,44.5  v73.9h-23V133.5h23V154C2048,141.1,2061.1,131.2,2084.2,131.2z"/>
<path class="st0" d="M2228.1,131.2c32.9,0,44.8,21.3,44.8,52.4v86h-23v-79.2c0-21-3.5-39.2-29.9-39.2c-22.3,0-35.9,15.4-35.9,44.5  v73.9h-23V133.5h23V154C2192,141.1,2205.1,131.2,2228.1,131.2z"/>
<path class="st0" d="M2361.5,272.9c-31.6,0-65.3-21.5-65.3-70.8c0-49.3,33.7-70.8,65.3-70.8c31.6,0,65.3,21.5,65.3,70.8  C2426.8,251.4,2393.1,272.9,2361.5,272.9z M2402.2,202.1c0-36.2-20-50.6-40.7-50.6s-40.7,13.4-40.7,50.6c0,36.2,20,50.6,40.7,50.6  S2402.2,237,2402.2,202.1z"/>
<path class="st0" d="M2530.8,133.5h23.8l-51.4,136.1h-20.5l-51.4-136.1h25.6l36.9,104.2L2530.8,133.5z"/>
<path class="st0" d="M2649.4,185.9v-3.3c0-24.8-13.9-33.1-30.9-33.1c-19,0-30.1,10.4-31.1,27.1h-23.8c2.3-29.3,28.1-45.8,54.7-45.8  c37.4,0,54.4,18,54.1,56.2l-0.3,31.4c-0.3,22.8,1,38.5,3.5,51.4h-23.3c-0.8-5.1-1.5-10.6-1.8-18.7c-8.3,13.9-22.5,22-46.6,22  c-25.6,0-46.8-14.2-46.8-39.2C2557.3,201.6,2593.5,192.2,2649.4,185.9z M2582.9,233.2c0,12.9,9.9,21.5,26.3,21.5  c21.5,0,42-9.9,42-42v-8.6C2609.4,208.4,2582.9,214.5,2582.9,233.2z"/>
<path class="st0" d="M2734.2,99.3v34.2h25.8V152h-25.8v80.7c0,14.2,1,17.7,14.2,17.7h11.6v19.2h-16.7c-26.1,0-32.1-5.8-32.1-34.2  V152h-21.5v-18.5h21.5V99.3H2734.2z"/>
<path class="st0" d="M2810.1,114h-23V86.2h23V114z M2810.1,269.6h-23V133.5h23V269.6z"/>
<path class="st0" d="M2900.7,272.9c-31.6,0-65.3-21.5-65.3-70.8c0-49.3,33.7-70.8,65.3-70.8s65.3,21.5,65.3,70.8  C2965.9,251.4,2932.3,272.9,2900.7,272.9z M2941.4,202.1c0-36.2-20-50.6-40.7-50.6s-40.7,13.4-40.7,50.6c0,36.2,20,50.6,40.7,50.6  S2941.4,237,2941.4,202.1z"/>
<path class="st0" d="M3058.3,131.2c32.9,0,44.8,21.3,44.8,52.4v86h-23v-79.2c0-21-3.5-39.2-29.9-39.2c-22.3,0-35.9,15.4-35.9,44.5  v73.9h-23V133.5h23V154C3022.1,141.1,3035.3,131.2,3058.3,131.2z"/>
<path class="st0" d="M741.8,378.8v-22.3h145.2v22.3h-59.7V540h-25.8V378.8H741.8z"/>
<path class="st0" d="M938.5,523c20.2,0,31.4-9.1,37.2-22.5h23.8c-6.3,23.5-27.8,42.8-61,42.8c-43,0-66.8-30.9-66.8-71.1  c0-43,28.8-70.6,66-70.6c41.5,0,66.5,34.9,63.5,77.9H896.5C897.5,508.8,918.3,523,938.5,523z M977,459.8  c-0.5-19.2-14.9-38.5-39.2-38.5c-20.5,0-39,11.1-41,38.5H977z"/>
<path class="st0" d="M1220.6,411.9c0,45.5-31.4,55.4-76.2,55.4h-31.6V540H1087V356.5h57.4C1189.3,356.5,1220.6,366.7,1220.6,411.9z   M1112.8,444.8h33.7c26.8,0,47.8-2.8,47.8-32.9c0-29.9-21-33.7-47.8-33.7h-33.7V444.8z"/>
<path class="st0" d="M1293.5,543.3c-31.6,0-65.3-21.5-65.3-70.8c0-49.3,33.7-70.8,65.3-70.8c31.6,0,65.3,21.5,65.3,70.8  C1358.8,521.8,1325.1,543.3,1293.5,543.3z M1334.2,472.4c0-36.2-20-50.6-40.7-50.6c-20.7,0-40.7,13.4-40.7,50.6  c0,36.2,20,50.6,40.7,50.6C1314.2,523,1334.2,507.3,1334.2,472.4z"/>
<path class="st0" d="M1407.1,465.1l54.9-61.2h28.3l-51.9,56.4l59,79.7h-28.1l-46.3-62.7l-15.9,17.2V540h-23V356.5h23V465.1z"/>
<path class="st0" d="M1592.8,456.2v-3.3c0-24.8-13.9-33.1-30.9-33.1c-19,0-30.1,10.4-31.1,27.1H1507c2.3-29.3,28.1-45.8,54.7-45.8  c37.4,0,54.4,18,54.1,56.2l-0.3,31.4c-0.3,22.8,1,38.5,3.5,51.4h-23.3c-0.8-5.1-1.5-10.6-1.8-18.7c-8.4,13.9-22.5,22-46.6,22  c-25.6,0-46.8-14.2-46.8-39.2C1500.7,471.9,1536.9,462.5,1592.8,456.2z M1526.3,503.5c0,12.9,9.9,21.5,26.3,21.5  c21.5,0,42-9.9,42-42v-8.6C1552.8,478.7,1526.3,484.8,1526.3,503.5z"/>
<path class="st0" d="M1669.7,425.4c8.3-14.4,22.8-23.8,44.5-23.8c31.1,0,58.2,26.1,58.2,70.8c0,45-27.1,70.8-58.2,70.8  c-21.8,0-36.2-9.4-44.5-23.8v64.8h-23V403.8h23V425.4z M1747.4,472.4c0-32.4-15.4-51.1-39-51.1c-20.5,0-39.7,15.2-39.7,51.1  c0,35.9,19.2,51.1,39.7,51.1C1732,523.5,1747.4,504.8,1747.4,472.4z"/>
<path class="st0" d="M1838.8,543.3c-31.6,0-43.5-21.3-43.5-52.4v-87h23v80.2c0,21,3.5,39.2,28.6,39.2c21.8,0,34.7-15.4,34.7-44.5  v-74.9h23V540h-23v-19.5C1873.7,533.4,1861.3,543.3,1838.8,543.3z M1812.7,360.3h75.9v19h-75.9V360.3z"/>
<path class="st0" d="M2076.1,356.5l69.1,183.4h-27.8l-14.4-39.7h-84.3l-14.2,39.7h-26.3l68.1-183.4H2076.1z M2094.8,478.2  l-34.4-95.6l-33.9,95.6H2094.8z"/>
<path class="st0" d="M2200.1,543.3c-31.6,0-43.5-21.3-43.5-52.4v-87h23v80.2c0,21,3.5,39.2,28.6,39.2c21.8,0,34.7-15.4,34.7-44.5  v-74.9h23V540h-23v-19.5C2235,533.4,2222.6,543.3,2200.1,543.3z"/>
<path class="st0" d="M2384,456.2v-3.3c0-24.8-13.9-33.1-30.9-33.1c-19,0-30.1,10.4-31.1,27.1h-23.8c2.3-29.3,28.1-45.8,54.7-45.8  c37.4,0,54.4,18,54.1,56.2l-0.3,31.4c-0.3,22.8,1,38.5,3.5,51.4H2387c-0.8-5.1-1.5-10.6-1.8-18.7c-8.3,13.9-22.5,22-46.6,22  c-25.6,0-46.8-14.2-46.8-39.2C2291.9,471.9,2328.1,462.5,2384,456.2z M2317.5,503.5c0,12.9,9.9,21.5,26.3,21.5c21.5,0,42-9.9,42-42  v-8.6C2344,478.7,2317.5,484.8,2317.5,503.5z"/>
<path class="st0" d="M2506.2,401.6c32.9,0,44.8,21.3,44.8,52.4v86h-23v-79.2c0-21-3.5-39.2-29.9-39.2c-22.3,0-35.9,15.4-35.9,44.5  V540h-23V356.5h23v67.8C2470,411.4,2483.2,401.6,2506.2,401.6z"/>
<path class="st0" d="M2667.1,456.2v-3.3c0-24.8-13.9-33.1-30.9-33.1c-19,0-30.1,10.4-31.1,27.1h-23.8c2.3-29.3,28.1-45.8,54.7-45.8  c37.4,0,54.4,18,54.1,56.2l-0.3,31.4c-0.3,22.8,1,38.5,3.5,51.4h-23.3c-0.8-5.1-1.5-10.6-1.8-18.7c-8.4,13.9-22.5,22-46.6,22  c-25.6,0-46.8-14.2-46.8-39.2C2575,471.9,2611.2,462.5,2667.1,456.2z M2600.6,503.5c0,12.9,9.9,21.5,26.3,21.5c21.5,0,42-9.9,42-42  v-8.6C2627.2,478.7,2600.6,484.8,2600.6,503.5z"/>
<script xmlns="" src="moz-extension://9b08bb91-710f-439f-9667-9cef82996351/scripts/custom_elements.js"/></svg>