<svg width="473" height="69" viewBox="0 0 473 69" fill="none" xmlns="http://www.w3.org/2000/svg">
<path d="M20.1399 68.158C16.4653 68.158 13.0733 67.522 9.96393 66.25C6.92526 65.0487 4.48726 63.176 2.64993 60.632C0.883259 58.0173 -7.40513e-05 54.696 -7.40513e-05 50.668C-7.40513e-05 48.4067 0.317926 45.9687 0.953926 43.354C1.94326 39.1847 3.56859 35.0153 5.82993 30.846C8.16193 26.6767 10.9179 22.7547 14.0979 19.08C17.3486 15.4053 20.8819 12.1547 24.6979 9.32801C28.5139 6.43068 32.4359 4.16934 36.4639 2.54401C40.5626 0.848012 44.6259 1.26362e-05 48.6539 1.26362e-05C49.8553 1.26362e-05 51.0919 0.106011 52.3639 0.318009C55.1906 0.812677 57.2753 1.87268 58.6179 3.49801C60.0313 5.05268 60.7379 6.85468 60.7379 8.90401C60.7379 11.3067 59.9606 13.7093 58.4059 16.112C56.8513 18.5147 54.8019 20.8113 52.2579 23.002C49.7846 25.122 47.0639 27.03 44.0959 28.726C41.1986 30.422 38.3366 31.8 35.5099 32.86C32.6833 33.92 30.1746 34.5207 27.9839 34.662C26.6413 34.7327 25.9699 34.344 25.9699 33.496C25.9699 33.072 26.1819 32.648 26.6059 32.224C27.1006 31.7293 27.7719 31.4467 28.6199 31.376C34.1319 30.8813 39.2553 29.2207 43.9899 26.394C48.7953 23.4967 52.4699 19.5747 55.0139 14.628C55.5793 13.568 56.0033 12.508 56.2859 11.448C56.6393 10.3173 56.8159 9.25734 56.8159 8.26801C56.8159 6.71334 56.3566 5.40601 55.4379 4.34601C54.5899 3.21534 53.0706 2.65001 50.8799 2.65001C48.4773 2.65001 45.6506 3.39201 42.3999 4.87601C39.1493 6.28935 35.7219 8.30334 32.1179 10.918C28.5846 13.5327 25.0866 16.642 21.6239 20.246C18.2319 23.7793 15.1579 27.666 12.4019 31.906C9.71659 36.0753 7.63193 40.492 6.14793 45.156C5.22926 47.9827 4.76993 50.5973 4.76993 53C4.76993 57.3107 6.25393 60.4907 9.22193 62.54C12.1899 64.5187 16.0413 65.508 20.7759 65.508C24.8746 65.508 29.3619 64.8013 34.2379 63.388C39.1846 61.9747 43.9899 59.8193 48.6539 56.922C53.3179 53.954 57.2399 50.2087 60.4199 45.686C60.6319 45.4033 60.8793 45.262 61.1619 45.262C61.4446 45.262 61.6919 45.4033 61.9039 45.686C62.1866 45.9687 62.2219 46.2513 62.0099 46.534C58.3353 51.622 54.0953 55.756 49.2899 58.936C44.5553 62.116 39.6439 64.448 34.5559 65.932C29.4679 67.416 24.6626 68.158 20.1399 68.158ZM88.8621 45.6711C88.8621 49.4318 88.1741 52.665 86.7983 55.3709C85.4224 58.0652 83.5364 60.1405 81.1401 61.5966C78.7553 63.0412 76.0437 63.7636 73.0054 63.7636C69.9556 63.7636 67.2325 63.0412 64.8363 61.5966C62.4514 60.1405 60.5711 58.0595 59.1953 55.3537C57.8194 52.6478 57.1315 49.4203 57.1315 45.6711C57.1315 41.9104 57.8194 38.6829 59.1953 35.9885C60.5711 33.2827 62.4514 31.2075 64.8363 29.7628C67.2325 28.3067 69.9556 27.5786 73.0054 27.5786C76.0437 27.5786 78.7553 28.3067 81.1401 29.7628C83.5364 31.2075 85.4224 33.2827 86.7983 35.9885C88.1741 38.6829 88.8621 41.9104 88.8621 45.6711ZM83.5994 45.6711C83.5994 42.8047 83.1351 40.3913 82.2064 38.4307C81.2892 36.4586 80.028 34.9681 78.4228 33.9592C76.8291 32.9387 75.0233 32.4285 73.0054 32.4285C70.976 32.4285 69.1645 32.9387 67.5708 33.9592C65.9771 34.9681 64.7159 36.4586 63.7872 38.4307C62.8699 40.3913 62.4113 42.8047 62.4113 45.6711C62.4113 48.5375 62.8699 50.9567 63.7872 52.9287C64.7159 54.8893 65.9771 56.3798 67.5708 57.4002C69.1645 58.4092 70.976 58.9137 73.0054 58.9137C75.0233 58.9137 76.8291 58.4092 78.4228 57.4002C80.028 56.3798 81.2892 54.8893 82.2064 52.9287C83.1351 50.9567 83.5994 48.5375 83.5994 45.6711ZM95.4877 63.282V28.0602H117.329V32.6349H100.802V43.3666H115.764V47.9241H100.802V63.282H95.4877ZM123.865 63.282V28.0602H145.706V32.6349H129.179V43.3666H144.141V47.9241H129.179V63.282H123.865ZM152.242 63.282V28.0602H174.324V32.6349H157.556V43.3666H173.172V47.9241H157.556V58.7073H174.53V63.282H152.242ZM181.423 63.282V28.0602H203.505V32.6349H186.737V43.3666H202.353V47.9241H186.737V58.7073H203.711V63.282H181.423ZM252.674 39.5142H247.309C247.102 38.3676 246.718 37.3587 246.156 36.4873C245.595 35.6159 244.907 34.8764 244.093 34.2687C243.279 33.6611 242.367 33.2024 241.358 32.8929C240.361 32.5833 239.3 32.4285 238.176 32.4285C236.147 32.4285 234.33 32.9387 232.725 33.9592C231.131 34.9796 229.87 36.4758 228.941 38.4479C228.024 40.4199 227.565 42.8277 227.565 45.6711C227.565 48.5375 228.024 50.9567 228.941 52.9287C229.87 54.9008 231.137 56.3913 232.742 57.4002C234.347 58.4092 236.153 58.9137 238.159 58.9137C239.271 58.9137 240.326 58.7646 241.324 58.4665C242.333 58.157 243.244 57.7041 244.058 57.1079C244.872 56.5117 245.56 55.7836 246.122 54.9237C246.695 54.0523 247.091 53.0548 247.309 51.9312L252.674 51.9484C252.388 53.6797 251.832 55.2734 251.006 56.7295C250.192 58.1742 249.143 59.4239 247.859 60.4787C246.586 61.5221 245.13 62.3304 243.491 62.9037C241.851 63.4769 240.063 63.7636 238.125 63.7636C235.075 63.7636 232.358 63.0412 229.973 61.5966C227.588 60.1405 225.708 58.0595 224.332 55.3537C222.968 52.6478 222.285 49.4203 222.285 45.6711C222.285 41.9104 222.973 38.6829 224.349 35.9885C225.725 33.2827 227.605 31.2075 229.99 29.7628C232.375 28.3067 235.087 27.5786 238.125 27.5786C239.994 27.5786 241.736 27.8481 243.353 28.387C244.981 28.9144 246.443 29.694 247.739 30.7259C249.034 31.7463 250.106 32.9961 250.955 34.4751C251.803 35.9427 252.376 37.6224 252.674 39.5142ZM261.772 63.282H256.131L268.806 28.0602H274.946L287.621 63.282H281.98L272.022 34.4579H271.747L261.772 63.282ZM262.718 49.4891H281.017V53.9606H262.718V49.4891ZM286.809 32.6349V28.0602H314.068V32.6349H303.078V63.282H297.781V32.6349H286.809ZM347.832 39.5142H342.466C342.26 38.3676 341.876 37.3587 341.314 36.4873C340.752 35.6159 340.064 34.8764 339.25 34.2687C338.436 33.6611 337.524 33.2024 336.515 32.8929C335.518 32.5833 334.457 32.4285 333.334 32.4285C331.304 32.4285 329.487 32.9387 327.882 33.9592C326.288 34.9796 325.027 36.4758 324.098 38.4479C323.181 40.4199 322.723 42.8277 322.723 45.6711C322.723 48.5375 323.181 50.9567 324.098 52.9287C325.027 54.9008 326.294 56.3913 327.899 57.4002C329.504 58.4092 331.31 58.9137 333.317 58.9137C334.429 58.9137 335.484 58.7646 336.481 58.4665C337.49 58.157 338.402 57.7041 339.216 57.1079C340.03 56.5117 340.718 55.7836 341.279 54.9237C341.853 54.0523 342.248 53.0548 342.466 51.9312L347.832 51.9484C347.545 53.6797 346.989 55.2734 346.164 56.7295C345.35 58.1742 344.301 59.4239 343.016 60.4787C341.744 61.5221 340.288 62.3304 338.648 62.9037C337.008 63.4769 335.22 63.7636 333.282 63.7636C330.232 63.7636 327.515 63.0412 325.13 61.5966C322.745 60.1405 320.865 58.0595 319.489 55.3537C318.125 52.6478 317.443 49.4203 317.443 45.6711C317.443 41.9104 318.131 38.6829 319.507 35.9885C320.882 33.2827 322.763 31.2075 325.148 29.7628C327.532 28.3067 330.244 27.5786 333.282 27.5786C335.151 27.5786 336.894 27.8481 338.51 28.387C340.139 28.9144 341.6 29.694 342.896 30.7259C344.192 31.7463 345.264 32.9961 346.112 34.4751C346.96 35.9427 347.534 37.6224 347.832 39.5142ZM354.191 63.282V28.0602H359.505V43.3666H377.064V28.0602H382.396V63.282H377.064V47.9241H359.505V63.282H354.191ZM405.287 43.4353V47.9069H389.671V43.4353H405.287ZM435.203 28.0602H440.534V51.2261C440.534 53.6912 439.955 55.8753 438.797 57.7786C437.639 59.6704 436.011 61.1609 433.913 62.2501C431.815 63.3279 429.355 63.8668 426.535 63.8668C423.726 63.8668 421.272 63.3279 419.174 62.2501C417.076 61.1609 415.448 59.6704 414.29 57.7786C413.132 55.8753 412.553 53.6912 412.553 51.2261V28.0602H417.867V50.7962C417.867 52.3898 418.217 53.8058 418.916 55.0441C419.627 56.2824 420.63 57.2569 421.926 57.9678C423.221 58.6672 424.758 59.0169 426.535 59.0169C428.324 59.0169 429.866 58.6672 431.161 57.9678C432.468 57.2569 433.466 56.2824 434.154 55.0441C434.853 53.8058 435.203 52.3898 435.203 50.7962V28.0602ZM448.26 63.282V28.0602H460.815C463.555 28.0602 465.826 28.5589 467.626 29.5564C469.426 30.5539 470.773 31.9183 471.667 33.6496C472.561 35.3694 473.009 37.3071 473.009 39.4626C473.009 41.6295 472.556 43.5787 471.65 45.3099C470.756 47.0298 469.403 48.3941 467.591 49.4031C465.791 50.4006 463.527 50.8993 460.798 50.8993H452.164V46.3934H460.316C462.048 46.3934 463.452 46.0953 464.53 45.4991C465.608 44.8915 466.399 44.0659 466.903 43.0226C467.408 41.9792 467.66 40.7926 467.66 39.4626C467.66 38.1326 467.408 36.9516 466.903 35.9197C466.399 34.8879 465.602 34.0795 464.513 33.4948C463.435 32.9101 462.013 32.6177 460.248 32.6177H453.575V63.282H448.26Z" fill="#620DD9"/>
</svg>
