<svg width="421" height="114" viewBox="0 0 421 114" fill="none" xmlns="http://www.w3.org/2000/svg">
<path d="M33.4401 113.168C27.3387 113.168 21.7067 112.112 16.5441 110C11.4987 108.005 7.45074 104.896 4.40008 100.672C1.46674 96.3307 7.74264e-05 90.816 7.74264e-05 84.128C7.74264e-05 80.3734 0.528077 76.3254 1.58408 71.984C3.22674 65.0614 5.92541 58.1387 9.68008 51.216C13.5521 44.2934 18.1281 37.7814 23.4081 31.68C28.8054 25.5787 34.6721 20.1814 41.0081 15.488C47.3441 10.6774 53.8561 6.92269 60.5441 4.22402C67.3494 1.40802 74.0961 2.09808e-05 80.7841 2.09808e-05C82.7787 2.09808e-05 84.8321 0.176019 86.9441 0.528014C91.6374 1.34935 95.0987 3.10935 97.3281 5.80802C99.6747 8.38935 100.848 11.3813 100.848 14.784C100.848 18.7734 99.5574 22.7627 96.9761 26.752C94.3947 30.7414 90.9921 34.5547 86.7681 38.192C82.6614 41.712 78.1441 44.88 73.2161 47.696C68.4054 50.512 63.6534 52.8 58.9601 54.56C54.2667 56.32 50.1014 57.3174 46.4641 57.552C44.2347 57.6694 43.1201 57.024 43.1201 55.616C43.1201 54.912 43.4721 54.208 44.1761 53.504C44.9974 52.6827 46.1121 52.2134 47.5201 52.096C56.6721 51.2747 65.1787 48.5174 73.0401 43.824C81.0187 39.0134 87.1201 32.5014 91.3441 24.288C92.2827 22.528 92.9868 20.768 93.4561 19.008C94.0428 17.1307 94.3361 15.3707 94.3361 13.728C94.3361 11.1467 93.5734 8.97602 92.0481 7.21601C90.6401 5.33868 88.1174 4.40002 84.4801 4.40002C80.4907 4.40002 75.7974 5.63202 70.4001 8.09602C65.0027 10.4427 59.3121 13.7867 53.3281 18.128C47.4614 22.4694 41.6534 27.632 35.9041 33.616C30.2721 39.4827 25.1681 45.936 20.5921 52.976C16.1334 59.8987 12.6721 67.232 10.2081 74.976C8.68274 79.6694 7.92008 84.0107 7.92008 88C7.92008 95.1574 10.3841 100.437 15.3121 103.84C20.2401 107.125 26.6347 108.768 34.4961 108.768C41.3014 108.768 48.7521 107.595 56.8481 105.248C65.0614 102.901 73.0401 99.3227 80.7841 94.512C88.5281 89.584 95.0401 83.3654 100.32 75.856C100.672 75.3867 101.083 75.152 101.552 75.152C102.021 75.152 102.432 75.3867 102.784 75.856C103.253 76.3254 103.312 76.7947 102.96 77.264C96.8587 85.712 89.8187 92.576 81.8401 97.856C73.9787 103.136 65.8241 107.008 57.3761 109.472C48.9281 111.936 40.9494 113.168 33.4401 113.168ZM125.84 105.872C121.466 105.872 117.44 105.152 113.76 103.712C110.08 102.272 106.88 100.272 104.16 97.712C101.44 95.0987 99.333 92.0587 97.8397 88.592C96.3464 85.072 95.5997 81.232 95.5997 77.072C95.5997 72.912 96.3464 69.0987 97.8397 65.632C99.333 62.112 101.44 59.072 104.16 56.512C106.88 53.8987 110.08 51.872 113.76 50.432C117.44 48.992 121.44 48.272 125.76 48.272C130.133 48.272 134.133 48.992 137.76 50.432C141.44 51.872 144.64 53.8987 147.36 56.512C150.08 59.072 152.186 62.112 153.68 65.632C155.173 69.0987 155.92 72.912 155.92 77.072C155.92 81.232 155.173 85.072 153.68 88.592C152.186 92.112 150.08 95.152 147.36 97.712C144.64 100.272 141.44 102.272 137.76 103.712C134.133 105.152 130.16 105.872 125.84 105.872ZM125.76 96.752C128.586 96.752 131.2 96.272 133.6 95.312C136 94.352 138.08 92.992 139.84 91.232C141.6 89.4187 142.96 87.3387 143.92 84.992C144.933 82.592 145.44 79.952 145.44 77.072C145.44 74.192 144.933 71.5787 143.92 69.232C142.96 66.832 141.6 64.752 139.84 62.992C138.08 61.1787 136 59.792 133.6 58.832C131.2 57.872 128.586 57.392 125.76 57.392C122.933 57.392 120.32 57.872 117.92 58.832C115.573 59.792 113.493 61.1787 111.68 62.992C109.92 64.752 108.533 66.832 107.52 69.232C106.56 71.5787 106.08 74.192 106.08 77.072C106.08 79.8987 106.56 82.512 107.52 84.912C108.533 87.312 109.92 89.4187 111.68 91.232C113.44 92.992 115.52 94.352 117.92 95.312C120.32 96.272 122.933 96.752 125.76 96.752ZM164.543 105.072V49.072H173.103L208.223 92.192H203.983V49.072H214.303V105.072H205.743L170.623 61.952H174.863V105.072H164.543ZM238.269 105.072V57.872H219.709V49.072H267.229V57.872H248.669V105.072H238.269ZM261.902 105.072L287.102 49.072H297.342L322.622 105.072H311.742L290.062 54.592H294.222L272.622 105.072H261.902ZM273.502 92.112L276.302 83.952H306.542L309.342 92.112H273.502ZM352.482 105.872C348.216 105.872 344.242 105.179 340.562 103.792C336.936 102.352 333.762 100.352 331.042 97.792C328.376 95.1787 326.296 92.112 324.802 88.592C323.309 85.072 322.562 81.232 322.562 77.072C322.562 72.912 323.309 69.072 324.802 65.552C326.296 62.032 328.402 58.992 331.122 56.432C333.842 53.8187 337.016 51.8187 340.642 50.432C344.269 48.992 348.242 48.272 352.562 48.272C357.149 48.272 361.336 49.072 365.122 50.672C368.909 52.2187 372.109 54.5387 374.722 57.632L368.002 63.952C365.976 61.7654 363.709 60.1387 361.202 59.072C358.696 57.952 355.976 57.392 353.042 57.392C350.109 57.392 347.416 57.872 344.962 58.832C342.562 59.792 340.456 61.152 338.642 62.912C336.882 64.672 335.496 66.752 334.482 69.152C333.522 71.552 333.042 74.192 333.042 77.072C333.042 79.952 333.522 82.592 334.482 84.992C335.496 87.392 336.882 89.472 338.642 91.232C340.456 92.992 342.562 94.352 344.962 95.312C347.416 96.272 350.109 96.752 353.042 96.752C355.976 96.752 358.696 96.2187 361.202 95.152C363.709 94.032 365.976 92.352 368.002 90.112L374.722 96.512C372.109 99.552 368.909 101.872 365.122 103.472C361.336 105.072 357.122 105.872 352.482 105.872ZM391.694 105.072V57.872H373.134V49.072H420.654V57.872H402.094V105.072H391.694Z" fill="#986AD9"/>
</svg>
