<svg width="494" height="69" viewBox="0 0 494 69" fill="none" xmlns="http://www.w3.org/2000/svg">
<path d="M20.14 68.158C16.4653 68.158 13.0733 67.522 9.96399 66.25C6.92532 65.0486 4.48732 63.176 2.64999 60.632C0.88332 58.0173 -1.30162e-05 54.696 -1.30162e-05 50.668C-1.30162e-05 48.4066 0.317987 45.9686 0.953987 43.354C1.94332 39.1846 3.56865 35.0153 5.82999 30.846C8.16199 26.6766 10.918 22.7546 14.098 19.08C17.3487 15.4053 20.882 12.1546 24.698 9.32798C28.514 6.43065 32.436 4.16931 36.464 2.54398C40.5627 0.847982 44.626 -1.78814e-05 48.654 -1.78814e-05C49.8553 -1.78814e-05 51.092 0.105981 52.364 0.317978C55.1907 0.812647 57.2753 1.87265 58.618 3.49798C60.0313 5.05264 60.738 6.85464 60.738 8.90398C60.738 11.3066 59.9607 13.7093 58.406 16.112C56.8513 18.5146 54.802 20.8113 52.258 23.002C49.7847 25.122 47.064 27.03 44.096 28.726C41.1987 30.422 38.3367 31.8 35.51 32.86C32.6833 33.92 30.1747 34.5206 27.984 34.662C26.6413 34.7326 25.97 34.344 25.97 33.496C25.97 33.072 26.182 32.648 26.606 32.224C27.1007 31.7293 27.772 31.4466 28.62 31.376C34.132 30.8813 39.2553 29.2206 43.99 26.394C48.7953 23.4966 52.47 19.5746 55.014 14.628C55.5793 13.568 56.0033 12.508 56.286 11.448C56.6393 10.3173 56.816 9.25731 56.816 8.26798C56.816 6.71331 56.3567 5.40598 55.438 4.34598C54.59 3.21531 53.0707 2.64998 50.88 2.64998C48.4773 2.64998 45.6507 3.39198 42.4 4.87598C39.1493 6.28931 35.722 8.30331 32.118 10.918C28.5847 13.5326 25.0867 16.642 21.624 20.246C18.232 23.7793 15.158 27.666 12.402 31.906C9.71665 36.0753 7.63199 40.492 6.14799 45.156C5.22932 47.9826 4.76999 50.5973 4.76999 53C4.76999 57.3106 6.25399 60.4906 9.22199 62.54C12.19 64.5186 16.0413 65.508 20.776 65.508C24.8747 65.508 29.362 64.8013 34.238 63.388C39.1847 61.9746 43.99 59.8193 48.654 56.922C53.318 53.954 57.24 50.2086 60.42 45.686C60.632 45.4033 60.8793 45.262 61.162 45.262C61.4447 45.262 61.692 45.4033 61.904 45.686C62.1867 45.9686 62.222 46.2513 62.01 46.534C58.3353 51.622 54.0953 55.756 49.29 58.936C44.5553 62.116 39.644 64.448 34.556 65.932C29.468 67.416 24.6627 68.158 20.14 68.158ZM88.8621 45.6711C88.8621 49.4317 88.1742 52.665 86.7984 55.3708C85.4225 58.0652 83.5364 60.1405 81.1402 61.5966C78.7554 63.0412 76.0438 63.7635 73.0054 63.7635C69.9556 63.7635 67.2326 63.0412 64.8363 61.5966C62.4515 60.1405 60.5712 58.0595 59.1953 55.3536C57.8195 52.6478 57.1315 49.4203 57.1315 45.6711C57.1315 41.9104 57.8195 38.6829 59.1953 35.9885C60.5712 33.2827 62.4515 31.2074 64.8363 29.7628C67.2326 28.3067 69.9556 27.5786 73.0054 27.5786C76.0438 27.5786 78.7554 28.3067 81.1402 29.7628C83.5364 31.2074 85.4225 33.2827 86.7984 35.9885C88.1742 38.6829 88.8621 41.9104 88.8621 45.6711ZM83.5995 45.6711C83.5995 42.8047 83.1351 40.3912 82.2064 38.4306C81.2892 36.4586 80.028 34.9681 78.4229 33.9591C76.8292 32.9387 75.0234 32.4285 73.0054 32.4285C70.9761 32.4285 69.1645 32.9387 67.5708 33.9591C65.9771 34.9681 64.7159 36.4586 63.7872 38.4306C62.87 40.3912 62.4114 42.8047 62.4114 45.6711C62.4114 48.5374 62.87 50.9566 63.7872 52.9287C64.7159 54.8893 65.9771 56.3798 67.5708 57.4002C69.1645 58.4092 70.9761 58.9137 73.0054 58.9137C75.0234 58.9137 76.8292 58.4092 78.4229 57.4002C80.028 56.3798 81.2892 54.8893 82.2064 52.9287C83.1351 50.9566 83.5995 48.5374 83.5995 45.6711ZM96.8163 28.0602L106.619 56.7467H107.015L116.818 28.0602H122.562L109.887 63.282H103.747L91.0721 28.0602H96.8163ZM127.648 63.282V28.0602H149.731V32.6349H132.963V43.3665H148.578V47.924H132.963V58.7073H149.937V63.282H127.648ZM156.829 63.282V28.0602H169.384C172.113 28.0602 174.377 28.5302 176.177 29.4704C177.989 30.4106 179.342 31.7119 180.236 33.3744C181.13 35.0254 181.577 36.9344 181.577 39.1014C181.577 41.2569 181.124 43.1544 180.219 44.794C179.324 46.4221 177.972 47.689 176.16 48.5948C174.36 49.5005 172.095 49.9534 169.367 49.9534H159.856V45.3787H168.885C170.605 45.3787 172.004 45.1322 173.081 44.6392C174.171 44.1462 174.968 43.4296 175.472 42.4894C175.977 41.5492 176.229 40.4199 176.229 39.1014C176.229 37.7714 175.971 36.6191 175.455 35.6445C174.95 34.67 174.154 33.9247 173.064 33.4088C171.987 32.8814 170.571 32.6177 168.816 32.6177H162.143V63.282H156.829ZM174.217 47.3909L182.919 63.282H176.865L168.335 47.3909H174.217ZM220.071 37.3128C219.888 35.6847 219.131 34.4235 217.801 33.5292C216.471 32.6234 214.797 32.1705 212.779 32.1705C211.334 32.1705 210.085 32.3998 209.03 32.8584C207.975 33.3056 207.155 33.9247 206.571 34.7158C205.997 35.4955 205.711 36.3841 205.711 37.3816C205.711 38.2185 205.906 38.9409 206.295 39.5485C206.697 40.1562 207.218 40.6664 207.86 41.0792C208.514 41.4805 209.213 41.8187 209.959 42.0939C210.704 42.3576 211.42 42.5754 212.108 42.7474L215.548 43.6417C216.672 43.9169 217.824 44.2895 219.005 44.7596C220.186 45.2297 221.281 45.8488 222.29 46.617C223.299 47.3852 224.113 48.3368 224.732 49.4719C225.362 50.6069 225.678 51.9656 225.678 53.5478C225.678 55.5428 225.162 57.3142 224.13 58.8621C223.109 60.4099 221.625 61.631 219.676 62.5253C217.738 63.4196 215.393 63.8667 212.642 63.8667C210.004 63.8667 207.723 63.4482 205.797 62.6113C203.87 61.7743 202.363 60.5876 201.274 59.0512C200.184 57.5034 199.582 55.6689 199.468 53.5478H204.799C204.902 54.8205 205.315 55.881 206.037 56.7295C206.771 57.5665 207.706 58.1913 208.841 58.6041C209.987 59.0054 211.243 59.206 212.607 59.206C214.109 59.206 215.445 58.971 216.614 58.5009C217.795 58.0193 218.724 57.3544 219.4 56.5059C220.077 55.646 220.415 54.6428 220.415 53.4962C220.415 52.4529 220.117 51.5987 219.521 50.9337C218.936 50.2687 218.139 49.7184 217.13 49.2827C216.133 48.847 215.003 48.4629 213.742 48.1304L209.58 46.9953C206.76 46.2271 204.524 45.0978 202.873 43.6073C201.233 42.1168 200.414 40.1447 200.414 37.6911C200.414 35.6617 200.964 33.8903 202.065 32.3769C203.165 30.8635 204.656 29.6883 206.536 28.8513C208.417 28.0028 210.538 27.5786 212.9 27.5786C215.284 27.5786 217.388 27.9971 219.211 28.8341C221.046 29.6711 222.49 30.8233 223.545 32.2909C224.6 33.747 225.15 35.421 225.196 37.3128H220.071ZM230.291 32.6349V28.0602H257.55V32.6349H246.561V63.282H241.264V32.6349H230.291ZM262.387 63.282H256.746L269.421 28.0602H275.561L288.236 63.282H282.595L272.637 34.4579H272.362L262.387 63.282ZM263.333 49.4891H281.632V53.9606H263.333V49.4891ZM293.322 63.282V28.0602H305.877C308.606 28.0602 310.87 28.5302 312.67 29.4704C314.482 30.4106 315.835 31.7119 316.729 33.3744C317.623 35.0254 318.071 36.9344 318.071 39.1014C318.071 41.2569 317.618 43.1544 316.712 44.794C315.818 46.4221 314.465 47.689 312.653 48.5948C310.853 49.5005 308.589 49.9534 305.86 49.9534H296.349V45.3787H305.378C307.098 45.3787 308.497 45.1322 309.575 44.6392C310.664 44.1462 311.461 43.4296 311.965 42.4894C312.47 41.5492 312.722 40.4199 312.722 39.1014C312.722 37.7714 312.464 36.6191 311.948 35.6445C311.443 34.67 310.647 33.9247 309.557 33.4088C308.48 32.8814 307.064 32.6177 305.309 32.6177H298.637V63.282H293.322ZM310.71 47.3909L319.412 63.282H313.358L304.828 47.3909H310.71ZM356.564 37.3128C356.381 35.6847 355.624 34.4235 354.294 33.5292C352.964 32.6234 351.29 32.1705 349.272 32.1705C347.828 32.1705 346.578 32.3998 345.523 32.8584C344.468 33.3056 343.648 33.9247 343.064 34.7158C342.49 35.4955 342.204 36.3841 342.204 37.3816C342.204 38.2185 342.399 38.9409 342.789 39.5485C343.19 40.1562 343.712 40.6664 344.354 41.0792C345.007 41.4805 345.707 41.8187 346.452 42.0939C347.197 42.3576 347.914 42.5754 348.602 42.7474L352.041 43.6417C353.165 43.9169 354.317 44.2895 355.498 44.7596C356.679 45.2297 357.774 45.8488 358.783 46.617C359.792 47.3852 360.606 48.3368 361.225 49.4719C361.856 50.6069 362.171 51.9656 362.171 53.5478C362.171 55.5428 361.655 57.3142 360.623 58.8621C359.603 60.4099 358.118 61.631 356.169 62.5253C354.231 63.4196 351.886 63.8667 349.135 63.8667C346.498 63.8667 344.216 63.4482 342.29 62.6113C340.364 61.7743 338.856 60.5876 337.767 59.0512C336.677 57.5034 336.076 55.6689 335.961 53.5478H341.292C341.396 54.8205 341.808 55.881 342.531 56.7295C343.264 57.5665 344.199 58.1913 345.334 58.6041C346.48 59.0054 347.736 59.206 349.1 59.206C350.602 59.206 351.938 58.971 353.107 58.5009C354.288 58.0193 355.217 57.3544 355.894 56.5059C356.57 55.646 356.908 54.6428 356.908 53.4962C356.908 52.4529 356.61 51.5987 356.014 50.9337C355.429 50.2687 354.632 49.7184 353.623 49.2827C352.626 48.847 351.497 48.4629 350.235 48.1304L346.073 46.9953C343.253 46.2271 341.017 45.0978 339.366 43.6073C337.727 42.1168 336.907 40.1447 336.907 37.6911C336.907 35.6617 337.457 33.8903 338.558 32.3769C339.659 30.8635 341.149 29.6883 343.029 28.8513C344.91 28.0028 347.031 27.5786 349.393 27.5786C351.777 27.5786 353.881 27.9971 355.704 28.8341C357.539 29.6711 358.984 30.8233 360.038 32.2909C361.093 33.747 361.643 35.421 361.689 37.3128H356.564ZM366.784 32.6349V28.0602H394.043V32.6349H383.054V63.282H377.757V32.6349H366.784ZM429.149 45.6711C429.149 49.4317 428.461 52.665 427.085 55.3708C425.709 58.0652 423.823 60.1405 421.427 61.5966C419.042 63.0412 416.331 63.7635 413.292 63.7635C410.243 63.7635 407.52 63.0412 405.123 61.5966C402.738 60.1405 400.858 58.0595 399.482 55.3536C398.106 52.6478 397.418 49.4203 397.418 45.6711C397.418 41.9104 398.106 38.6829 399.482 35.9885C400.858 33.2827 402.738 31.2074 405.123 29.7628C407.52 28.3067 410.243 27.5786 413.292 27.5786C416.331 27.5786 419.042 28.3067 421.427 29.7628C423.823 31.2074 425.709 33.2827 427.085 35.9885C428.461 38.6829 429.149 41.9104 429.149 45.6711ZM423.886 45.6711C423.886 42.8047 423.422 40.3912 422.493 38.4306C421.576 36.4586 420.315 34.9681 418.71 33.9591C417.116 32.9387 415.31 32.4285 413.292 32.4285C411.263 32.4285 409.451 32.9387 407.858 33.9591C406.264 34.9681 405.003 36.4586 404.074 38.4306C403.157 40.3912 402.698 42.8047 402.698 45.6711C402.698 48.5374 403.157 50.9566 404.074 52.9287C405.003 54.8893 406.264 56.3798 407.858 57.4002C409.451 58.4092 411.263 58.9137 413.292 58.9137C415.31 58.9137 417.116 58.4092 418.71 57.4002C420.315 56.3798 421.576 54.8893 422.493 52.9287C423.422 50.9566 423.886 48.5374 423.886 45.6711ZM435.775 63.282V28.0602H448.329C451.058 28.0602 453.323 28.5302 455.123 29.4704C456.934 30.4106 458.287 31.7119 459.181 33.3744C460.076 35.0254 460.523 36.9344 460.523 39.1014C460.523 41.2569 460.07 43.1544 459.164 44.794C458.27 46.4221 456.917 47.689 455.105 48.5948C453.305 49.5005 451.041 49.9534 448.312 49.9534H438.802V45.3787H447.831C449.55 45.3787 450.949 45.1322 452.027 44.6392C453.116 44.1462 453.913 43.4296 454.417 42.4894C454.922 41.5492 455.174 40.4199 455.174 39.1014C455.174 37.7714 454.916 36.6191 454.4 35.6445C453.896 34.67 453.099 33.9247 452.01 33.4088C450.932 32.8814 449.516 32.6177 447.762 32.6177H441.089V63.282H435.775ZM453.162 47.3909L461.864 63.282H455.811L447.28 47.3909H453.162ZM462.995 28.0602H469.032L478.233 44.0716H478.611L487.812 28.0602H493.849L481.07 49.4547V63.282H475.773V49.4547L462.995 28.0602Z" fill="#620DD9"/>
</svg>
