<svg width="43" height="43" viewBox="0 0 43 43" fill="none" xmlns="http://www.w3.org/2000/svg">
<path d="M33.0412 0.000165253H9.91021C8.59935 -0.0010239 7.30125 0.257544 6.09089 0.760931C4.88053 1.26432 3.7819 2.00255 2.85847 2.93297C1.93864 3.86042 1.21232 4.96146 0.721722 6.17208C0.231128 7.38271 -0.0139508 8.67877 0.000729188 9.98495V33.0152C-0.0151786 34.3216 0.229338 35.618 0.720001 36.8288C1.21066 38.0396 1.93764 39.1405 2.85847 40.0672C3.78164 40.9973 4.87991 41.7354 6.08987 42.2388C7.29983 42.7422 8.59752 43.0009 9.90801 43H20.4107V27.6391H16.3975C16.149 27.6374 15.9112 27.5383 15.7351 27.363C15.5591 27.1877 15.4588 26.9504 15.4559 26.702V21.7713C15.4556 21.6446 15.4804 21.5191 15.5289 21.402C15.5774 21.285 15.6486 21.1787 15.7384 21.0893C15.8282 20.9999 15.9348 20.9291 16.0521 20.8812C16.1694 20.8332 16.295 20.809 16.4217 20.8099H20.4107V16.0027C20.2988 14.8666 20.4375 13.7198 20.8169 12.643C21.1964 11.5663 21.8074 10.586 22.6069 9.77105C23.4072 8.95243 24.3763 8.31822 25.4469 7.91262C26.5174 7.50702 27.6635 7.33979 28.8053 7.4226H32.8934C33.0185 7.42346 33.1422 7.44906 33.2573 7.49793C33.3725 7.54679 33.4768 7.61796 33.5643 7.70732C33.6518 7.79669 33.7208 7.90249 33.7673 8.01863C33.8137 8.13477 33.8367 8.25896 33.835 8.38403V12.5517C33.835 12.675 33.8106 12.7972 33.7632 12.911C33.7158 13.0249 33.6463 13.1283 33.5588 13.2152C33.4713 13.3021 33.3674 13.3708 33.2532 13.4174C33.139 13.464 33.0168 13.4875 32.8934 13.4867H30.4172C27.6917 13.4867 27.1713 14.7701 27.1713 16.6422V20.7856H33.1161C33.2502 20.7849 33.3828 20.8128 33.5052 20.8674C33.6276 20.922 33.737 21.002 33.8261 21.1021C33.9151 21.2022 33.9819 21.3202 34.0218 21.4481C34.0617 21.5761 34.074 21.7111 34.0577 21.8441L33.4623 26.7769C33.4381 27.0089 33.3282 27.2234 33.154 27.3784C32.9798 27.5335 32.7539 27.6178 32.5208 27.6149H27.1956V42.9757H33.0919C34.4024 42.9766 35.7001 42.7179 36.91 42.2146C38.12 41.7112 39.2183 40.9731 40.1414 40.0429C41.0615 39.1152 41.788 38.0138 42.2786 36.8028C42.7692 35.5918 43.0141 34.2953 42.9992 32.9888V9.98495C43.0163 8.67423 42.7708 7.37336 42.2769 6.15913C41.7831 4.9449 41.0509 3.84193 40.1238 2.91533C39.1952 1.98439 38.0909 1.24728 36.8751 0.746831C35.6592 0.246382 34.356 -0.00742281 33.0412 0.000165253Z" fill="#620DD9"/>
</svg>
