<svg width="670" height="216" viewBox="0 0 670 216" fill="none" xmlns="http://www.w3.org/2000/svg">
<path d="M187.036 145.364H192.097L200.895 166.847H201.219L210.017 145.364H215.077V173H211.11V153.001H210.854L202.703 172.96H199.411L191.26 152.988H191.004V173H187.036V145.364ZM229.547 173.418C227.604 173.418 225.908 172.973 224.459 172.082C223.011 171.192 221.886 169.946 221.086 168.344C220.285 166.743 219.885 164.872 219.885 162.731C219.885 160.581 220.285 158.701 221.086 157.09C221.886 155.48 223.011 154.229 224.459 153.339C225.908 152.448 227.604 152.003 229.547 152.003C231.49 152.003 233.186 152.448 234.634 153.339C236.082 154.229 237.207 155.48 238.008 157.09C238.808 158.701 239.209 160.581 239.209 162.731C239.209 164.872 238.808 166.743 238.008 168.344C237.207 169.946 236.082 171.192 234.634 172.082C233.186 172.973 231.49 173.418 229.547 173.418ZM229.56 170.031C230.82 170.031 231.863 169.698 232.691 169.033C233.519 168.367 234.13 167.481 234.526 166.374C234.931 165.268 235.133 164.049 235.133 162.717C235.133 161.395 234.931 160.18 234.526 159.074C234.13 157.958 233.519 157.063 232.691 156.388C231.863 155.714 230.82 155.376 229.56 155.376C228.292 155.376 227.239 155.714 226.403 156.388C225.575 157.063 224.959 157.958 224.554 159.074C224.158 160.18 223.96 161.395 223.96 162.717C223.96 164.049 224.158 165.268 224.554 166.374C224.959 167.481 225.575 168.367 226.403 169.033C227.239 169.698 228.292 170.031 229.56 170.031ZM243.712 173V152.273H247.585V155.646H247.842C248.273 154.504 248.98 153.613 249.96 152.974C250.941 152.327 252.115 152.003 253.482 152.003C254.868 152.003 256.028 152.327 256.964 152.974C257.908 153.622 258.606 154.513 259.055 155.646H259.271C259.766 154.54 260.553 153.658 261.633 153.001C262.712 152.336 263.999 152.003 265.492 152.003C267.372 152.003 268.906 152.592 270.094 153.771C271.29 154.949 271.888 156.726 271.888 159.101V173H267.854V159.479C267.854 158.075 267.471 157.059 266.707 156.429C265.942 155.799 265.029 155.484 263.967 155.484C262.654 155.484 261.633 155.889 260.904 156.699C260.175 157.5 259.811 158.53 259.811 159.789V173H255.79V159.222C255.79 158.098 255.439 157.194 254.737 156.51C254.036 155.826 253.122 155.484 251.998 155.484C251.233 155.484 250.527 155.687 249.879 156.092C249.241 156.487 248.723 157.041 248.327 157.751C247.941 158.462 247.747 159.285 247.747 160.221V173H243.712ZM286.23 173.418C284.187 173.418 282.429 172.982 280.953 172.109C279.487 171.228 278.353 169.991 277.553 168.398C276.761 166.797 276.365 164.921 276.365 162.771C276.365 160.648 276.761 158.777 277.553 157.158C278.353 155.538 279.469 154.274 280.899 153.366C282.339 152.457 284.021 152.003 285.946 152.003C287.116 152.003 288.249 152.196 289.347 152.583C290.444 152.97 291.429 153.577 292.302 154.405C293.175 155.232 293.863 156.308 294.367 157.63C294.87 158.943 295.122 160.54 295.122 162.42V163.851H278.646V160.828H291.169C291.169 159.767 290.953 158.826 290.521 158.008C290.089 157.18 289.482 156.528 288.699 156.051C287.925 155.574 287.017 155.336 285.973 155.336C284.84 155.336 283.85 155.615 283.004 156.173C282.168 156.721 281.52 157.441 281.061 158.332C280.611 159.213 280.387 160.171 280.387 161.206V163.567C280.387 164.953 280.629 166.131 281.115 167.103C281.61 168.075 282.298 168.817 283.18 169.33C284.061 169.833 285.092 170.085 286.27 170.085C287.035 170.085 287.732 169.977 288.362 169.761C288.991 169.536 289.536 169.204 289.994 168.763C290.453 168.322 290.804 167.778 291.047 167.13L294.866 167.818C294.56 168.943 294.011 169.928 293.22 170.773C292.437 171.61 291.452 172.262 290.264 172.73C289.086 173.189 287.741 173.418 286.23 173.418ZM303.634 160.693V173H299.599V152.273H303.472V155.646H303.728C304.205 154.549 304.952 153.667 305.968 153.001C306.994 152.336 308.285 152.003 309.841 152.003C311.254 152.003 312.491 152.3 313.552 152.893C314.614 153.478 315.437 154.351 316.022 155.511C316.606 156.672 316.899 158.107 316.899 159.816V173H312.864V160.302C312.864 158.799 312.473 157.625 311.69 156.78C310.907 155.925 309.832 155.498 308.465 155.498C307.529 155.498 306.697 155.7 305.968 156.105C305.249 156.51 304.677 157.104 304.255 157.886C303.841 158.66 303.634 159.596 303.634 160.693ZM331.985 152.273V155.511H320.664V152.273H331.985ZM323.7 147.307H327.735V166.914C327.735 167.697 327.852 168.286 328.086 168.682C328.319 169.069 328.621 169.334 328.99 169.478C329.368 169.613 329.777 169.68 330.218 169.68C330.542 169.68 330.825 169.658 331.068 169.613C331.311 169.568 331.5 169.532 331.635 169.505L332.363 172.838C332.129 172.928 331.797 173.018 331.365 173.108C330.933 173.207 330.393 173.261 329.745 173.27C328.684 173.288 327.694 173.099 326.777 172.703C325.859 172.307 325.117 171.696 324.55 170.868C323.983 170.04 323.7 169.001 323.7 167.751V147.307ZM351.647 157.333L347.99 157.981C347.837 157.513 347.594 157.068 347.261 156.645C346.937 156.222 346.496 155.876 345.939 155.606C345.381 155.336 344.684 155.201 343.847 155.201C342.704 155.201 341.751 155.457 340.986 155.97C340.221 156.474 339.839 157.126 339.839 157.927C339.839 158.62 340.096 159.177 340.608 159.6C341.121 160.023 341.949 160.369 343.091 160.639L346.384 161.395C348.291 161.836 349.712 162.515 350.648 163.433C351.584 164.35 352.051 165.542 352.051 167.009C352.051 168.25 351.692 169.357 350.972 170.328C350.261 171.291 349.267 172.046 347.99 172.595C346.721 173.144 345.25 173.418 343.577 173.418C341.256 173.418 339.362 172.924 337.896 171.934C336.43 170.935 335.53 169.518 335.197 167.683L339.097 167.089C339.34 168.106 339.839 168.875 340.595 169.397C341.35 169.91 342.336 170.166 343.55 170.166C344.873 170.166 345.93 169.892 346.721 169.343C347.513 168.785 347.909 168.106 347.909 167.305C347.909 166.658 347.666 166.113 347.18 165.673C346.703 165.232 345.97 164.899 344.98 164.674L341.472 163.905C339.538 163.464 338.107 162.762 337.181 161.8C336.263 160.837 335.804 159.618 335.804 158.143C335.804 156.919 336.146 155.849 336.83 154.931C337.514 154.013 338.458 153.298 339.664 152.786C340.869 152.264 342.25 152.003 343.806 152.003C346.047 152.003 347.81 152.489 349.096 153.46C350.383 154.423 351.233 155.714 351.647 157.333ZM376.409 152.273V155.511H364.696V152.273H376.409ZM367.907 173V149.871C367.907 148.575 368.191 147.5 368.757 146.646C369.324 145.782 370.075 145.139 371.011 144.716C371.947 144.284 372.963 144.068 374.061 144.068C374.87 144.068 375.563 144.136 376.139 144.271C376.715 144.397 377.142 144.513 377.421 144.621L376.476 147.887C376.287 147.833 376.044 147.77 375.748 147.698C375.451 147.617 375.091 147.577 374.668 147.577C373.687 147.577 372.986 147.82 372.563 148.305C372.149 148.791 371.942 149.493 371.942 150.411V173H367.907ZM380.572 173V152.273H384.472V155.565H384.688C385.065 154.45 385.731 153.573 386.685 152.934C387.647 152.286 388.736 151.962 389.95 151.962C390.202 151.962 390.499 151.971 390.841 151.989C391.192 152.007 391.466 152.03 391.664 152.057V155.916C391.502 155.871 391.214 155.822 390.8 155.768C390.387 155.705 389.973 155.673 389.559 155.673C388.605 155.673 387.755 155.876 387.009 156.281C386.271 156.676 385.686 157.23 385.254 157.94C384.822 158.642 384.607 159.443 384.607 160.342V173H380.572ZM403.144 173.418C401.201 173.418 399.505 172.973 398.057 172.082C396.609 171.192 395.484 169.946 394.683 168.344C393.883 166.743 393.482 164.872 393.482 162.731C393.482 160.581 393.883 158.701 394.683 157.09C395.484 155.48 396.609 154.229 398.057 153.339C399.505 152.448 401.201 152.003 403.144 152.003C405.088 152.003 406.783 152.448 408.232 153.339C409.68 154.229 410.805 155.48 411.605 157.09C412.406 158.701 412.806 160.581 412.806 162.731C412.806 164.872 412.406 166.743 411.605 168.344C410.805 169.946 409.68 171.192 408.232 172.082C406.783 172.973 405.088 173.418 403.144 173.418ZM403.158 170.031C404.417 170.031 405.461 169.698 406.289 169.033C407.116 168.367 407.728 167.481 408.124 166.374C408.529 165.268 408.731 164.049 408.731 162.717C408.731 161.395 408.529 160.18 408.124 159.074C407.728 157.958 407.116 157.063 406.289 156.388C405.461 155.714 404.417 155.376 403.158 155.376C401.889 155.376 400.837 155.714 400 156.388C399.173 157.063 398.556 157.958 398.151 159.074C397.756 160.18 397.558 161.395 397.558 162.717C397.558 164.049 397.756 165.268 398.151 166.374C398.556 167.481 399.173 168.367 400 169.033C400.837 169.698 401.889 170.031 403.158 170.031ZM417.31 173V152.273H421.183V155.646H421.439C421.871 154.504 422.577 153.613 423.558 152.974C424.538 152.327 425.712 152.003 427.08 152.003C428.465 152.003 429.626 152.327 430.561 152.974C431.506 153.622 432.203 154.513 432.653 155.646H432.869C433.364 154.54 434.151 153.658 435.23 153.001C436.31 152.336 437.596 152.003 439.09 152.003C440.97 152.003 442.504 152.592 443.691 153.771C444.888 154.949 445.486 156.726 445.486 159.101V173H441.451V159.479C441.451 158.075 441.069 157.059 440.304 156.429C439.54 155.799 438.627 155.484 437.565 155.484C436.252 155.484 435.23 155.889 434.502 156.699C433.773 157.5 433.409 158.53 433.409 159.789V173H429.387V159.222C429.387 158.098 429.037 157.194 428.335 156.51C427.633 155.826 426.72 155.484 425.596 155.484C424.831 155.484 424.125 155.687 423.477 156.092C422.838 156.487 422.321 157.041 421.925 157.751C421.538 158.462 421.345 159.285 421.345 160.221V173H417.31ZM466.686 173L459.021 145.364H463.407L468.791 166.766H469.047L474.647 145.364H478.993L484.593 166.779H484.849L490.22 145.364H494.619L486.941 173H482.744L476.928 152.3H476.712L470.896 173H466.686ZM503.832 173L496.167 145.364H500.553L505.937 166.766H506.194L511.794 145.364H516.139L521.739 166.779H521.996L527.366 145.364H531.765L524.087 173H519.89L514.074 152.3H513.858L508.042 173H503.832ZM535.244 173V152.273H539.278V173H535.244ZM537.281 149.075C536.58 149.075 535.977 148.841 535.473 148.373C534.978 147.896 534.731 147.329 534.731 146.673C534.731 146.007 534.978 145.44 535.473 144.972C535.977 144.496 536.58 144.257 537.281 144.257C537.983 144.257 538.581 144.496 539.076 144.972C539.58 145.44 539.832 146.007 539.832 146.673C539.832 147.329 539.58 147.896 539.076 148.373C538.581 148.841 537.983 149.075 537.281 149.075ZM560.104 152.624C559.96 151.346 559.366 150.357 558.322 149.655C557.279 148.944 555.965 148.589 554.382 148.589C553.248 148.589 552.268 148.769 551.44 149.129C550.613 149.479 549.969 149.965 549.51 150.586C549.061 151.198 548.836 151.895 548.836 152.678C548.836 153.334 548.989 153.901 549.295 154.378C549.609 154.855 550.019 155.255 550.523 155.579C551.035 155.894 551.584 156.159 552.169 156.375C552.754 156.582 553.316 156.753 553.856 156.888L556.555 157.589C557.436 157.805 558.34 158.098 559.267 158.467C560.193 158.835 561.053 159.321 561.844 159.924C562.636 160.527 563.275 161.273 563.76 162.164C564.255 163.055 564.503 164.121 564.503 165.362C564.503 166.928 564.098 168.317 563.288 169.532C562.488 170.746 561.323 171.705 559.793 172.406C558.273 173.108 556.433 173.459 554.274 173.459C552.205 173.459 550.415 173.13 548.903 172.474C547.392 171.817 546.209 170.886 545.354 169.68C544.5 168.466 544.027 167.027 543.937 165.362H548.121C548.202 166.361 548.525 167.193 549.092 167.859C549.668 168.515 550.401 169.006 551.292 169.33C552.191 169.644 553.176 169.802 554.247 169.802C555.425 169.802 556.474 169.617 557.391 169.249C558.318 168.871 559.046 168.349 559.577 167.683C560.108 167.009 560.373 166.221 560.373 165.322C560.373 164.503 560.14 163.833 559.672 163.311C559.213 162.789 558.588 162.357 557.796 162.016C557.013 161.674 556.127 161.372 555.138 161.112L551.872 160.221C549.659 159.618 547.905 158.732 546.609 157.562C545.323 156.393 544.68 154.846 544.68 152.92C544.68 151.328 545.111 149.938 545.975 148.751C546.839 147.563 548.008 146.641 549.483 145.984C550.959 145.319 552.623 144.986 554.476 144.986C556.348 144.986 557.998 145.314 559.429 145.971C560.868 146.628 562.002 147.532 562.829 148.683C563.657 149.826 564.089 151.139 564.125 152.624H560.104ZM568.123 148.953V145.364H589.511V148.953H580.888V173H576.732V148.953H568.123ZM594.237 173V145.364H611.564V148.953H598.407V157.374H610.66V160.95H598.407V169.411H611.726V173H594.237ZM617.134 145.364H622.194L630.993 166.847H631.316L640.115 145.364H645.175V173H641.208V153.001H640.951L632.801 172.96H629.508L621.358 152.988H621.101V173H617.134V145.364Z" fill="black"/>
<path d="M126 188.12C121.776 188.12 118.373 186.947 115.792 184.6C113.328 182.253 112.096 179.085 112.096 175.096C112.096 171.928 112.976 168.349 114.736 164.36C116.496 160.488 119.312 156.381 123.184 152.04C131.163 142.888 140.021 135.379 149.76 129.512C159.616 123.645 170.176 118.893 181.44 115.256C183.083 110.797 184.608 106.28 186.016 101.704C187.424 97.0107 188.832 92.3173 190.24 87.624C184.491 93.0213 178.155 98.4187 171.232 103.816C164.309 109.096 156.976 113.555 149.232 117.192C141.488 120.712 133.451 122.472 125.12 122.472C119.019 122.472 113.211 121.357 107.696 119.128C102.299 116.781 97.8988 113.261 94.4961 108.568C91.0935 103.875 89.3921 97.832 89.3921 90.44C89.3921 72.2533 97.4881 55.8853 113.68 41.336C123.067 32.7707 133.275 26.6107 144.304 22.856C155.451 18.984 167.184 17.048 179.504 17.048C180.912 17.048 182.907 17.224 185.488 17.576C188.187 17.8107 190.944 18.3973 193.76 19.336C196.576 20.1573 199.04 21.3893 201.152 23.032C203.264 24.5573 204.496 26.552 204.848 29.016C204.965 29.4853 205.024 29.896 205.024 30.248C205.024 30.6 205.024 30.952 205.024 31.304C205.024 32.712 204.789 33.768 204.32 34.472C203.851 35.176 203.323 35.528 202.736 35.528C201.563 35.528 200.976 34.5893 200.976 32.712C200.741 29.544 199.685 27.1387 197.808 25.496C196.048 23.736 193.819 22.5627 191.12 21.976C188.539 21.3893 185.899 21.096 183.2 21.096C178.859 21.096 173.637 22.0347 167.536 23.912C161.552 25.672 155.216 28.1947 148.528 31.48C141.84 34.648 135.211 38.4613 128.64 42.92C122.187 47.2613 116.32 52.072 111.04 57.352C105.76 62.5147 101.536 67.9707 98.3681 73.72C95.2001 79.4693 93.6161 85.2773 93.6161 91.144C93.6161 99.24 96.2561 105.107 101.536 108.744C106.933 112.264 113.739 114.024 121.952 114.024C129.931 114.024 138.379 112.616 147.296 109.8C153.984 107.805 159.733 105.341 164.544 102.408C169.355 99.3573 173.931 95.896 178.272 92.024C182.613 88.0347 187.248 83.6933 192.176 79C194.288 73.6027 197.045 70.1413 200.448 68.616C203.851 67.0907 207.019 66.328 209.952 66.328C211.595 66.328 213.061 66.4453 214.352 66.68C215.643 66.9147 216.523 67.032 216.992 67.032C217.931 67.1493 218.4 67.5013 218.4 68.088C218.4 69.144 217.696 69.5547 216.288 69.32C212.651 69.0853 209.483 70.7867 206.784 74.424C204.085 77.944 201.915 82.168 200.272 87.096C198.747 91.2027 197.28 95.4267 195.872 99.768C194.464 104.109 192.939 108.451 191.296 112.792C197.28 111.149 201.739 110.328 204.672 110.328C206.08 110.328 207.019 110.504 207.488 110.856C207.957 111.208 208.192 111.677 208.192 112.264C208.192 113.32 207.781 113.672 206.96 113.32C206.256 113.085 205.493 112.968 204.672 112.968C203.147 112.968 201.211 113.261 198.864 113.848C196.517 114.317 194.405 114.963 192.528 115.784C190.651 116.605 189.477 117.603 189.008 118.776C183.963 131.565 178.624 142.36 172.992 151.16C167.36 159.96 161.669 167.059 155.92 172.456C150.288 177.971 144.891 181.96 139.728 184.424C134.565 186.888 129.989 188.12 126 188.12ZM130.928 183.544C135.269 183.544 139.552 181.843 143.776 178.44C148 175.155 152.048 170.872 155.92 165.592C159.909 160.312 163.488 154.68 166.656 148.696C169.941 142.712 172.757 137.021 175.104 131.624C177.451 126.227 179.211 121.885 180.384 118.6C170.763 121.768 161.845 125.992 153.632 131.272C145.419 136.552 138.085 143.181 131.632 151.16C128.112 155.501 125.531 159.549 123.888 163.304C122.363 167.059 121.6 170.403 121.6 173.336C121.6 176.504 122.421 178.968 124.064 180.728C125.824 182.605 128.112 183.544 130.928 183.544ZM202.31 123L227.51 67H237.75L263.03 123H252.15L230.47 72.52H234.63L213.03 123H202.31ZM213.91 110.04L216.71 101.88H246.95L249.75 110.04H213.91ZM267.752 123V67H278.152V114.2H307.432V123H267.752ZM313.242 123V67H323.642V114.2H352.922V123H313.242ZM358.733 123V67H399.613V75.72H369.133V114.28H400.733V123H358.733ZM368.333 98.84V90.28H396.173V98.84H368.333ZM409.927 123V67H432.887C440.354 67 446.194 68.76 450.407 72.28C454.674 75.8 456.807 80.68 456.807 86.92C456.807 91.0267 455.847 94.5733 453.927 97.56C452.007 100.493 449.26 102.76 445.687 104.36C442.167 105.907 437.927 106.68 432.967 106.68H415.687L420.327 101.96V123H409.927ZM446.567 123L432.407 102.68H443.527L457.767 123H446.567ZM420.327 103.08L415.687 98.12H432.487C437.074 98.12 440.514 97.1333 442.807 95.16C445.154 93.1867 446.327 90.44 446.327 86.92C446.327 83.3467 445.154 80.6 442.807 78.68C440.514 76.76 437.074 75.8 432.487 75.8H415.687L420.327 70.68V103.08ZM479.021 123V100.84L481.341 107.24L457.021 67H468.141L487.661 99.4H481.421L501.101 67H511.341L487.021 107.24L489.421 100.84V123H479.021Z" fill="#030200"/>
</svg>
