<svg width="43" height="43" viewBox="0 0 43 43" fill="none" xmlns="http://www.w3.org/2000/svg">
<path fill-rule="evenodd" clip-rule="evenodd" d="M9.21504 0C6.77168 -1.80168e-07 4.42833 0.970382 2.70027 2.69777C0.97222 4.42516 0.000938314 6.76814 0 9.21151V33.785C0 36.2289 0.970868 38.5728 2.69902 40.301C4.42718 42.0291 6.77106 43 9.21504 43H33.7885C36.2319 42.9991 38.5748 42.0278 40.3022 40.2997C42.0296 38.5717 43 36.2283 43 33.785V9.21151C42.9991 6.76875 42.0283 4.42631 40.301 2.69902C38.5737 0.971734 36.2312 0.000937898 33.7885 0H9.21504ZM36.4391 9.22566C36.4391 9.92957 36.1594 10.6047 35.6617 11.1024C35.1639 11.6001 34.4889 11.8798 33.785 11.8798C33.081 11.8798 32.406 11.6001 31.9082 11.1024C31.4105 10.6047 31.1309 9.92957 31.1309 9.22566C31.1309 8.52175 31.4105 7.84667 31.9082 7.34893C32.406 6.85119 33.081 6.57156 33.785 6.57156C34.4889 6.57156 35.1639 6.85119 35.6617 7.34893C36.1594 7.84667 36.4391 8.52175 36.4391 9.22566ZM21.5053 14.1375C19.5531 14.1375 17.6809 14.913 16.3005 16.2934C14.9201 17.6738 14.1446 19.546 14.1446 21.4982C14.1446 23.4504 14.9201 25.3226 16.3005 26.703C17.6809 28.0834 19.5531 28.8589 21.5053 28.8589C23.4575 28.8589 25.3297 28.0834 26.7101 26.703C28.0905 25.3226 28.866 23.4504 28.866 21.4982C28.866 19.546 28.0905 17.6738 26.7101 16.2934C25.3297 14.913 23.4575 14.1375 21.5053 14.1375ZM10.6023 21.4982C10.6023 18.6075 11.7506 15.8352 13.7946 13.7911C15.8387 11.7471 18.611 10.5987 21.5018 10.5987C24.3925 10.5987 27.1648 11.7471 29.2089 13.7911C31.2529 15.8352 32.4013 18.6075 32.4013 21.4982C32.4013 24.389 31.2529 27.1613 29.2089 29.2054C27.1648 31.2494 24.3925 32.3977 21.5018 32.3977C18.611 32.3977 15.8387 31.2494 13.7946 29.2054C11.7506 27.1613 10.6023 24.389 10.6023 21.4982Z" fill="#620DD9"/>
</svg>
