<svg width="43" height="43" viewBox="0 0 43 43" fill="none" xmlns="http://www.w3.org/2000/svg">
<path d="M33.1938 0H9.8062C7.20544 0 4.71119 1.03315 2.87217 2.87217C1.03315 4.71119 0 7.20544 0 9.8062V33.1938C0 35.7946 1.03315 38.2888 2.87217 40.1278C4.71119 41.9669 7.20544 43 9.8062 43H33.1938C35.7946 43 38.2888 41.9669 40.1278 40.1278C41.9669 38.2888 43 35.7946 43 33.1938V9.8062C43 7.20544 41.9669 4.71119 40.1278 2.87217C38.2888 1.03315 35.7946 0 33.1938 0ZM14.5384 34.7131C14.5453 34.8332 14.5276 34.9533 14.4864 35.0663C14.4452 35.1792 14.3813 35.2825 14.2987 35.3699C14.2161 35.4572 14.1165 35.5268 14.006 35.5742C13.8956 35.6217 13.7766 35.6461 13.6564 35.6459H9.73123C9.49452 35.6401 9.26953 35.5417 9.1046 35.3718C8.93966 35.202 8.84795 34.9742 8.84918 34.7374V18.4128C8.84594 18.295 8.86636 18.1777 8.90923 18.0678C8.9521 17.958 9.01656 17.8579 9.09879 17.7734C9.18102 17.6889 9.27936 17.6217 9.38799 17.5759C9.49661 17.5301 9.61333 17.5065 9.73123 17.5065H13.6564C13.7743 17.5065 13.891 17.5301 13.9996 17.5759C14.1082 17.6217 14.2066 17.6889 14.2888 17.7734C14.371 17.8579 14.4355 17.958 14.4784 18.0678C14.5212 18.1777 14.5417 18.295 14.5384 18.4128V34.7131ZM11.621 14.0731C11.1961 14.0699 10.7759 13.9831 10.3845 13.8175C9.9931 13.6519 9.63815 13.4109 9.33991 13.1082C9.04167 12.8054 8.80598 12.4469 8.6463 12.0531C8.48662 11.6592 8.40607 11.2378 8.40926 10.8128C8.41244 10.3879 8.4993 9.96771 8.66487 9.57632C8.83043 9.18493 9.07147 8.82998 9.37422 8.53173C9.67696 8.23349 10.0355 7.9978 10.4293 7.83812C10.8232 7.67844 11.2446 7.59789 11.6695 7.60108C12.513 7.62851 13.3124 7.98449 13.8971 8.59307C14.4818 9.20165 14.8056 10.0146 14.7992 10.8586C14.7929 11.7025 14.457 12.5105 13.8632 13.1103C13.2695 13.71 12.4648 14.0539 11.621 14.0687M35.4739 34.6867C35.4729 34.9095 35.3854 35.1232 35.2299 35.2828C35.0744 35.4424 34.8631 35.5354 34.6404 35.5423H30.4969C30.2738 35.5354 30.0622 35.4421 29.9066 35.282C29.7511 35.1219 29.6639 34.9077 29.6634 34.6845V27.1341C29.6634 26.0073 30.0074 22.2321 26.6732 22.2321C24.0734 22.2321 23.5596 24.8783 23.4604 26.0558V34.8565C23.4605 35.08 23.3735 35.2949 23.2179 35.4554C23.0623 35.6159 22.8503 35.7096 22.6268 35.7165H18.6069C18.3792 35.7159 18.161 35.625 18.0002 35.4638C17.8394 35.3026 17.7491 35.0842 17.7491 34.8565V18.3334C17.756 18.11 17.8496 17.898 18.0101 17.7424C18.1707 17.5868 18.3855 17.4998 18.6091 17.4999H22.6268C22.8504 17.4998 23.0652 17.5868 23.2258 17.7424C23.3863 17.898 23.4799 18.11 23.4868 18.3334V19.7557C24.0735 18.8971 24.8834 18.2149 25.8292 17.7828C26.7751 17.3507 27.821 17.185 28.8541 17.3036C35.5467 17.3036 35.5224 23.5552 35.5224 27.1098L35.4739 34.6867Z" fill="#620DD9"/>
</svg>
