<svg width="409" height="115" viewBox="0 0 409 115" fill="none" xmlns="http://www.w3.org/2000/svg">
<path d="M5.29999 70.808C3.74533 70.808 2.47333 70.3133 1.48399 69.324C0.494661 68.3347 -5.30668e-06 66.9567 -5.30668e-06 65.19C-5.30668e-06 64.2007 0.211995 63.1053 0.635995 61.904C0.989328 60.632 1.62533 59.2893 2.54399 57.876C4.16933 55.332 6.25399 52.5053 8.79799 49.396C11.4127 46.216 14.1687 43.0713 17.066 39.962C19.9633 36.8527 22.684 34.026 25.228 31.482C27.8427 28.8673 29.9273 26.8533 31.482 25.44C32.1887 23.32 32.86 21.1293 33.496 18.868C34.2027 16.6067 34.9093 14.2747 35.616 11.872C33.6373 13.7093 31.376 15.0873 28.832 16.006C26.3587 16.9247 24.0267 17.4547 21.836 17.596H21.73C21.0233 17.596 20.67 17.3487 20.67 16.854C20.67 16.2887 21.094 15.9707 21.942 15.9C23.9913 15.688 26.1113 14.9107 28.302 13.568C30.4927 12.1547 32.5067 10.388 34.344 8.26799C36.252 6.07733 37.7007 3.74533 38.69 1.27199C38.8313 0.847991 39.2907 0.529993 40.068 0.317996C40.916 0.105995 41.7993 -6.07967e-06 42.718 -6.07967e-06C43.4953 -6.07967e-06 44.1667 0.105995 44.732 0.317996C45.368 0.459328 45.6153 0.777326 45.474 1.27199C44.202 4.52266 42.9653 7.66733 41.764 10.706C40.5627 13.674 39.3967 16.5713 38.266 19.398C42.4353 15.8647 46.322 12.932 49.926 10.6C53.6007 8.19733 56.5687 6.92533 58.83 6.784C62.858 6.57199 66.0027 7.24333 68.264 8.79799C70.596 10.3527 72.2213 12.4373 73.14 15.052C74.1293 17.596 74.624 20.3167 74.624 23.214C74.624 23.9207 74.5887 24.592 74.518 25.228C74.518 25.864 74.4827 26.5 74.412 27.136C74.0587 30.3867 73.352 34.0967 72.292 38.266C71.232 42.4353 70.1013 46.322 68.9 49.926C68.7587 50.2793 68.5467 50.9153 68.264 51.834C67.9813 52.682 67.946 53.106 68.158 53.106C68.2287 53.106 68.582 52.6467 69.218 51.728C70.9847 48.8307 72.6807 46.004 74.306 43.248C76.002 40.4213 77.804 37.524 79.712 34.556C82.5387 30.1747 85.6127 25.758 88.934 21.306C92.326 16.854 95.718 12.8613 99.11 9.32799C100.453 7.91466 101.831 6.85466 103.244 6.14799C104.728 5.44132 106.106 5.08799 107.378 5.08799C108.791 5.08799 109.957 5.58266 110.876 6.57199C111.865 7.49066 112.36 8.93933 112.36 10.918C112.36 11.4127 112.289 11.978 112.148 12.614C112.077 13.1793 111.971 13.8153 111.83 14.522C110.982 17.914 109.993 21.0233 108.862 23.85C107.731 26.6767 106.601 29.468 105.47 32.224C104.339 34.9093 103.315 37.736 102.396 40.704C101.548 43.672 100.947 46.958 100.594 50.562C100.523 51.198 100.453 51.7987 100.382 52.364C100.382 52.9293 100.382 53.4593 100.382 53.954C100.382 56.3567 100.735 58.1233 101.442 59.254C102.149 60.314 103.067 60.844 104.198 60.844C105.541 60.844 107.095 60.2787 108.862 59.148C110.699 57.9467 112.537 56.498 114.374 54.802C116.211 53.0353 117.872 51.3393 119.356 49.714C120.84 48.018 121.935 46.6753 122.642 45.686C122.783 45.474 122.995 45.368 123.278 45.368C123.561 45.368 123.808 45.474 124.02 45.686C124.232 45.898 124.232 46.1807 124.02 46.534C123.101 47.9473 121.794 49.608 120.098 51.516C118.473 53.3533 116.741 55.1553 114.904 56.922C113.137 58.618 111.547 59.996 110.134 61.056C109.074 61.8333 107.837 62.4693 106.424 62.964C105.081 63.4587 103.739 63.706 102.396 63.706C100.841 63.706 99.428 63.3173 98.156 62.54C96.884 61.7627 96.0007 60.42 95.506 58.512C95.294 57.8053 95.1527 57.0633 95.082 56.286C95.0113 55.5087 94.976 54.696 94.976 53.848C94.976 50.88 95.4 47.594 96.248 43.99C97.096 40.3153 98.156 36.676 99.428 33.072C100.7 29.3973 101.901 26.076 103.032 23.108C104.233 20.0693 105.152 17.6667 105.788 15.9C106.283 14.9107 106.53 13.992 106.53 13.144C106.53 11.66 105.894 10.918 104.622 10.918C103.562 10.918 102.325 11.5187 100.912 12.72C98.8627 14.4867 96.6013 16.7833 94.128 19.61C91.7253 22.4367 89.252 25.546 86.708 28.938C84.2347 32.33 81.7967 35.828 79.394 39.432C77.062 42.9653 74.9067 46.3927 72.928 49.714C71.02 52.9647 69.4653 55.862 68.264 58.406C67.7693 59.466 67.204 59.996 66.568 59.996C66.0733 59.996 65.5787 59.678 65.084 59.042C64.66 58.406 64.3067 57.7347 64.024 57.028C63.812 56.2507 63.7767 55.7207 63.918 55.438C64.8367 53.1767 65.6847 50.4207 66.462 47.17C67.2393 43.8487 67.8753 40.3507 68.37 36.676C68.8647 32.9307 69.112 29.362 69.112 25.97C69.112 21.4473 68.5467 17.6313 67.416 14.522C66.2853 11.342 64.3067 9.75199 61.48 9.75199C59.6427 9.75199 57.3107 10.5293 54.484 12.084C51.6573 13.6387 48.5833 15.7233 45.262 18.338C42.0113 20.9527 38.6547 23.85 35.192 27.03C34.556 28.5847 33.602 30.846 32.33 33.814C31.1287 36.782 29.68 40.068 27.984 43.672C26.3587 47.276 24.5213 50.88 22.472 54.484C20.4933 58.0173 18.444 61.1267 16.324 63.812C14.416 66.2147 12.508 67.9813 10.6 69.112C8.692 70.2427 6.92533 70.808 5.29999 70.808ZM5.83 67.098C7.66733 67.098 9.54 66.1087 11.448 64.13C13.4267 62.222 15.37 59.784 17.278 56.816C19.2567 53.7773 21.0587 50.6327 22.684 47.382C24.3093 44.1313 25.6873 41.128 26.818 38.372C28.0193 35.616 28.8673 33.5667 29.362 32.224C27.3833 34.132 25.2987 36.252 23.108 38.584C20.9173 40.8453 18.762 43.1773 16.642 45.58C14.5927 47.912 12.72 50.1027 11.024 52.152C9.328 54.2013 7.98533 55.8973 6.996 57.24C5.86533 58.7947 5.01733 60.208 4.45199 61.48C3.95733 62.6813 3.70999 63.7413 3.70999 64.66C3.70999 66.2853 4.41666 67.098 5.83 67.098ZM122.607 62.646V28.745H147.355V34.0239H128.903V57.3671H148.033V62.646H122.607ZM128.419 48.0201V42.8381H145.273V48.0201H128.419ZM153.599 62.646V28.745H158.781L173.6 53.4927H170.888L185.466 28.745H190.648L190.696 62.646H184.739L184.691 38.092H185.95L173.552 58.7716H170.743L158.151 38.092H159.604V62.646H153.599ZM198.4 62.646V28.745H214.285C218.354 28.745 221.453 29.5522 223.584 31.1665C225.715 32.7485 226.78 34.8795 226.78 37.5593C226.78 39.3673 226.361 40.9171 225.521 42.2085C224.682 43.4677 223.552 44.4525 222.131 45.1628C220.743 45.8408 219.225 46.1798 217.579 46.1798L218.45 44.4363C220.355 44.4363 222.067 44.7915 223.584 45.5018C225.101 46.1798 226.296 47.1807 227.168 48.5044C228.072 49.8282 228.524 51.4748 228.524 53.4443C228.524 56.3501 227.41 58.6102 225.182 60.2245C222.954 61.8388 219.645 62.646 215.254 62.646H198.4ZM204.696 57.7061H214.867C217.224 57.7061 219.032 57.3187 220.291 56.5438C221.55 55.7689 222.18 54.5259 222.18 52.8147C222.18 51.1358 221.55 49.9089 220.291 49.134C219.032 48.3269 217.224 47.9233 214.867 47.9233H204.212V43.0318H213.607C215.803 43.0318 217.482 42.6444 218.644 41.8695C219.839 41.0946 220.436 39.9323 220.436 38.3826C220.436 36.8005 219.839 35.6221 218.644 34.8472C217.482 34.0723 215.803 33.6849 213.607 33.6849H204.696V57.7061ZM233.79 62.646V28.745H258.538V34.0239H240.086V57.3671H259.216V62.646H233.79ZM239.602 48.0201V42.8381H256.455V48.0201H239.602ZM264.782 62.646V28.745H278.681C283.201 28.745 286.737 29.8105 289.287 31.9414C291.87 34.0723 293.162 37.0265 293.162 40.8041C293.162 43.2901 292.58 45.4372 291.418 47.2453C290.256 49.021 288.593 50.3932 286.43 51.3618C284.299 52.2981 281.732 52.7663 278.729 52.7663H268.269L271.078 49.9089V62.646H264.782ZM286.963 62.646L278.39 50.3448H285.122L293.743 62.646H286.963ZM271.078 50.5869L268.269 47.5843H278.439C281.216 47.5843 283.298 46.987 284.686 45.7924C286.107 44.5977 286.817 42.935 286.817 40.8041C286.817 38.6409 286.107 36.9781 284.686 35.8158C283.298 34.6535 281.216 34.0723 278.439 34.0723H268.269L271.078 30.9728V50.5869ZM309.262 63.1303C306.614 63.1303 304.08 62.759 301.658 62.0164C299.237 61.2415 297.316 60.2568 295.895 59.0622L298.075 54.1707C299.431 55.2362 301.11 56.1241 303.111 56.8344C305.113 57.5447 307.163 57.8999 309.262 57.8999C311.038 57.8999 312.474 57.7061 313.572 57.3187C314.67 56.9313 315.477 56.4147 315.994 55.7689C316.51 55.0909 316.769 54.3322 316.769 53.4927C316.769 52.4596 316.397 51.6362 315.655 51.0228C314.912 50.3771 313.944 49.8766 312.749 49.5215C311.587 49.134 310.279 48.7789 308.826 48.456C307.405 48.1331 305.969 47.7618 304.516 47.3421C303.095 46.8901 301.788 46.3251 300.593 45.6471C299.431 44.9368 298.478 44.0004 297.736 42.8381C296.993 41.6758 296.622 40.1906 296.622 38.3826C296.622 36.5422 297.106 34.8633 298.075 33.3458C299.075 31.7961 300.577 30.5692 302.579 29.6652C304.613 28.7289 307.179 28.2607 310.279 28.2607C312.313 28.2607 314.331 28.519 316.333 29.0356C318.334 29.5522 320.078 30.2948 321.563 31.2634L319.578 36.1548C318.06 35.2508 316.494 34.5889 314.88 34.1692C313.265 33.7171 311.716 33.4911 310.231 33.4911C308.487 33.4911 307.066 33.701 305.969 34.1207C304.903 34.5405 304.112 35.0893 303.596 35.7673C303.111 36.4454 302.869 37.2202 302.869 38.092C302.869 39.1252 303.224 39.9646 303.935 40.6103C304.677 41.2238 305.63 41.7081 306.792 42.0632C307.987 42.4184 309.31 42.7736 310.763 43.1287C312.216 43.4516 313.653 43.8229 315.074 44.2426C316.526 44.6623 317.834 45.2112 318.996 45.8892C320.191 46.5672 321.143 47.4874 321.854 48.6497C322.596 49.812 322.968 51.2811 322.968 53.0569C322.968 54.8649 322.467 56.5438 321.466 58.0936C320.498 59.611 318.996 60.8379 316.962 61.7743C314.928 62.6783 312.361 63.1303 309.262 63.1303ZM351.585 62.646V28.745H357.881V62.646H351.585ZM327.758 62.646V28.745H334.054V62.646H327.758ZM333.521 48.117V42.7413H352.07V48.117H333.521ZM365.512 62.646V28.745H371.808V62.646H365.512ZM379.525 62.646V28.745H393.473C396.475 28.745 399.042 29.2293 401.173 30.1979C403.336 31.1665 404.999 32.5548 406.161 34.3629C407.324 36.1709 407.905 38.318 407.905 40.8041C407.905 43.2901 407.324 45.4372 406.161 47.2453C404.999 49.0533 403.336 50.4416 401.173 51.4102C399.042 52.3788 396.475 52.8631 393.473 52.8631H383.012L385.821 49.9089V62.646H379.525ZM385.821 50.5869L383.012 47.5358H393.182C395.959 47.5358 398.041 46.9547 399.43 45.7924C400.85 44.5977 401.56 42.935 401.56 40.8041C401.56 38.6409 400.85 36.9781 399.43 35.8158C398.041 34.6535 395.959 34.0723 393.182 34.0723H383.012L385.821 30.9728V50.5869ZM84.2328 113.646L99.4882 79.745H105.687L120.991 113.646H114.405L101.28 83.0867H103.799L90.7224 113.646H84.2328ZM91.2551 105.8L92.9502 100.86H111.257L112.952 105.8H91.2551ZM123.85 113.646V79.745H137.798C140.8 79.745 143.367 80.2293 145.498 81.1979C147.661 82.1665 149.324 83.5548 150.486 85.3629C151.648 87.1709 152.23 89.318 152.23 91.8041C152.23 94.2901 151.648 96.4372 150.486 98.2453C149.324 100.053 147.661 101.442 145.498 102.41C143.367 103.379 140.8 103.863 137.798 103.863H127.337L130.146 100.909V113.646H123.85ZM130.146 101.587L127.337 98.5358H137.507C140.284 98.5358 142.366 97.9547 143.754 96.7924C145.175 95.5977 145.885 93.935 145.885 91.8041C145.885 89.6409 145.175 87.9781 143.754 86.8158C142.366 85.6535 140.284 85.0723 137.507 85.0723H127.337L130.146 81.9728V101.587ZM157.064 113.646V79.745H171.012C174.014 79.745 176.581 80.2293 178.712 81.1979C180.875 82.1665 182.538 83.5548 183.7 85.3629C184.863 87.1709 185.444 89.318 185.444 91.8041C185.444 94.2901 184.863 96.4372 183.7 98.2453C182.538 100.053 180.875 101.442 178.712 102.41C176.581 103.379 174.014 103.863 171.012 103.863H160.551L163.36 100.909V113.646H157.064ZM163.36 101.587L160.551 98.5358H170.721C173.498 98.5358 175.58 97.9547 176.969 96.7924C178.389 95.5977 179.1 93.935 179.1 91.8041C179.1 89.6409 178.389 87.9781 176.969 86.8158C175.58 85.6535 173.498 85.0723 170.721 85.0723H160.551L163.36 81.9728V101.587ZM190.278 113.646V79.745H196.574V108.319H214.3V113.646H190.278ZM217.817 113.646V79.745H224.113V113.646H217.817ZM247.521 114.13C244.938 114.13 242.533 113.711 240.305 112.871C238.109 111.999 236.188 110.789 234.542 109.239C232.927 107.657 231.668 105.8 230.764 103.669C229.86 101.538 229.408 99.2139 229.408 96.6955C229.408 94.1771 229.86 91.8525 230.764 89.7216C231.668 87.5907 232.944 85.7503 234.59 84.2006C236.237 82.6185 238.158 81.4078 240.353 80.5683C242.549 79.6966 244.954 79.2607 247.569 79.2607C250.346 79.2607 252.881 79.745 255.173 80.7136C257.465 81.6499 259.402 83.0544 260.985 84.927L256.916 88.753C255.689 87.4292 254.317 86.4445 252.8 85.7987C251.282 85.1207 249.636 84.7817 247.86 84.7817C246.084 84.7817 244.454 85.0723 242.969 85.6535C241.516 86.2346 240.24 87.0579 239.143 88.1234C238.077 89.1888 237.238 90.448 236.624 91.9009C236.043 93.3538 235.752 94.952 235.752 96.6955C235.752 98.439 236.043 100.037 236.624 101.49C237.238 102.943 238.077 104.202 239.143 105.268C240.24 106.333 241.516 107.156 242.969 107.738C244.454 108.319 246.084 108.609 247.86 108.609C249.636 108.609 251.282 108.286 252.8 107.641C254.317 106.963 255.689 105.946 256.916 104.59L260.985 108.464C259.402 110.304 257.465 111.709 255.173 112.677C252.881 113.646 250.33 114.13 247.521 114.13ZM259.635 113.646L274.89 79.745H281.089L296.393 113.646H289.806L276.682 83.0867H279.2L266.124 113.646H259.635ZM266.657 105.8L268.352 100.86H286.658L288.354 105.8H266.657ZM304.426 113.646V85.0723H293.19V79.745H321.957V85.0723H310.722V113.646H304.426ZM325.23 113.646V79.745H331.525V113.646H325.23ZM355.127 114.13C352.48 114.13 350.042 113.694 347.814 112.823C345.586 111.951 343.649 110.74 342.003 109.19C340.356 107.608 339.081 105.768 338.177 103.669C337.273 101.538 336.821 99.2139 336.821 96.6955C336.821 94.1771 337.273 91.8686 338.177 89.77C339.081 87.6391 340.356 85.7987 342.003 84.249C343.649 82.6669 345.586 81.44 347.814 80.5683C350.042 79.6966 352.463 79.2607 355.079 79.2607C357.726 79.2607 360.148 79.6966 362.343 80.5683C364.571 81.44 366.508 82.6669 368.155 84.249C369.801 85.7987 371.077 87.6391 371.981 89.77C372.885 91.8686 373.337 94.1771 373.337 96.6955C373.337 99.2139 372.885 101.538 371.981 103.669C371.077 105.8 369.801 107.641 368.155 109.19C366.508 110.74 364.571 111.951 362.343 112.823C360.148 113.694 357.742 114.13 355.127 114.13ZM355.079 108.609C356.79 108.609 358.372 108.319 359.825 107.738C361.278 107.156 362.537 106.333 363.602 105.268C364.668 104.17 365.491 102.911 366.072 101.49C366.686 100.037 366.992 98.439 366.992 96.6955C366.992 94.952 366.686 93.37 366.072 91.9494C365.491 90.4965 364.668 89.2373 363.602 88.1718C362.537 87.0741 361.278 86.2346 359.825 85.6535C358.372 85.0723 356.79 84.7817 355.079 84.7817C353.368 84.7817 351.785 85.0723 350.333 85.6535C348.912 86.2346 347.653 87.0741 346.555 88.1718C345.49 89.2373 344.65 90.4965 344.037 91.9494C343.456 93.37 343.165 94.952 343.165 96.6955C343.165 98.4067 343.456 99.9887 344.037 101.442C344.65 102.895 345.49 104.17 346.555 105.268C347.62 106.333 348.88 107.156 350.333 107.738C351.785 108.319 353.368 108.609 355.079 108.609ZM378.557 113.646V79.745H383.739L405 105.849H402.433V79.745H408.681V113.646H403.499L382.238 87.5422H384.805V113.646H378.557Z" fill="#620DD9"/>
</svg>
