<svg width="330" height="72" viewBox="0 0 330 72" fill="none" xmlns="http://www.w3.org/2000/svg">
<path d="M28.62 71.55C23.6734 71.55 19.4687 70.3133 16.006 67.84C12.614 65.3666 10.0347 62.1866 8.26802 58.3C6.50136 54.3426 5.61802 50.1026 5.61802 45.58C5.61802 41.0573 6.53669 36.57 8.37402 32.118C10.2114 27.666 13.038 23.744 16.854 20.352C20.67 16.96 25.4754 14.5926 31.27 13.25C32.0474 13.1086 32.8247 13.0026 33.602 12.932C34.3794 12.7906 35.2274 12.72 36.146 12.72C37.7007 12.72 39.22 12.932 40.704 13.356C42.188 13.78 43.46 14.5573 44.52 15.688C45.2974 16.3946 45.686 16.8893 45.686 17.172C45.686 17.4546 45.6154 17.596 45.474 17.596C45.262 17.596 44.9794 17.49 44.626 17.278C44.3434 17.066 44.0254 16.9246 43.672 16.854C42.4 16.3593 40.9867 16.112 39.432 16.112C39.008 16.112 38.584 16.1473 38.16 16.218C37.8067 16.218 37.4534 16.2533 37.1 16.324C32.9307 17.3133 29.1854 19.0093 25.864 21.412C22.6134 23.8146 19.822 26.6766 17.49 29.998C15.2287 33.3193 13.4974 36.8173 12.296 40.492C11.0947 44.096 10.494 47.594 10.494 50.986C10.494 54.3073 11.0947 57.346 12.296 60.102C13.4974 62.858 15.3347 65.0486 17.808 66.674C20.352 68.2993 23.5674 69.112 27.454 69.112C28.514 69.112 29.6447 69.0413 30.846 68.9C32.0474 68.7586 33.3194 68.5466 34.662 68.264C37.4887 67.628 40.3507 66.25 43.248 64.13C46.216 62.0806 49.0427 59.5366 51.728 56.498C54.4134 53.3886 56.7807 50.032 58.83 46.428C60.95 42.7533 62.6107 38.9726 63.812 35.086C65.084 31.1993 65.72 27.4186 65.72 23.744C65.72 16.6773 63.7414 11.4126 59.784 7.94997C55.8974 4.41663 50.6327 2.64997 43.99 2.64997C39.6087 2.64997 35.2274 3.46263 30.846 5.08797C26.5354 6.64263 22.8254 8.55063 19.716 10.812C16.536 13.0026 13.6387 15.6173 11.024 18.656C8.48002 21.624 6.39536 24.804 4.77002 28.196C3.14469 31.5173 2.15536 34.874 1.80202 38.266C1.80202 39.0433 1.62536 39.432 1.27202 39.432C0.989357 39.432 0.70669 39.114 0.424024 38.478C0.141357 37.7713 2.38419e-05 37.0646 2.38419e-05 36.358C2.38419e-05 32.4006 0.812691 28.62 2.43802 25.016C4.13402 21.412 6.39536 18.0906 9.22202 15.052C12.0487 12.0133 15.264 9.39863 18.868 7.20797C22.472 4.94663 26.2174 3.2153 30.104 2.01396C34.0614 0.741963 37.9127 0.105963 41.658 0.105963C47.3114 0.0352969 52.3287 1.05997 56.71 3.17997C61.162 5.29997 64.66 8.37396 67.204 12.402C69.748 16.43 71.02 21.306 71.02 27.03C71.02 32.6126 69.96 37.842 67.84 42.718C65.7907 47.594 63.0347 51.9753 59.572 55.862C56.18 59.678 52.3994 62.858 48.23 65.402C44.1314 67.946 40.0327 69.6773 35.934 70.596C34.5914 70.9493 33.3194 71.1966 32.118 71.338C30.9874 71.4793 29.8214 71.55 28.62 71.55ZM73.7319 63.918V28.6961H86.2865C89.0268 28.6961 91.2969 29.1949 93.097 30.1924C94.8971 31.1899 96.2443 32.5543 97.1386 34.2855C98.0329 36.0054 98.48 37.943 98.48 40.0985C98.48 42.2655 98.0271 44.2146 97.1214 45.9459C96.2271 47.6657 94.8742 49.0301 93.0626 50.0391C91.2625 51.0366 88.9981 51.5353 86.2693 51.5353H77.6359V47.0294H85.7878C87.5191 47.0294 88.9236 46.7313 90.0013 46.1351C91.0791 45.5274 91.8702 44.7019 92.3747 43.6585C92.8792 42.6152 93.1314 41.4285 93.1314 40.0985C93.1314 38.7685 92.8792 37.5876 92.3747 36.5557C91.8702 35.5238 91.0734 34.7155 89.9841 34.1308C88.9064 33.546 87.4847 33.2537 85.719 33.2537H79.0461V63.918H73.7319ZM104.71 63.918V28.6961H126.792V33.2709H110.024V44.0025H125.64V48.56H110.024V59.3433H126.999V63.918H104.71ZM162.32 28.6961V63.918H157.435L139.532 38.0863H139.205V63.918H133.891V28.6961H138.81L156.73 54.5622H157.057V28.6961H162.32ZM211.317 28.6961V63.918H206.433L188.53 38.0863H188.203V63.918H182.889V28.6961H187.807L205.728 54.5622H206.054V28.6961H211.317ZM224.383 28.6961V63.918H219.069V28.6961H224.383ZM255.959 39.8234C255.627 38.78 255.18 37.8456 254.618 37.0201C254.067 36.1831 253.408 35.4722 252.64 34.8875C251.872 34.2913 250.995 33.8384 250.009 33.5288C249.034 33.2193 247.962 33.0645 246.793 33.0645C244.809 33.0645 243.02 33.5747 241.427 34.5951C239.833 35.6155 238.572 37.1118 237.643 39.0838C236.726 41.0444 236.267 43.4464 236.267 46.2899C236.267 49.1448 236.732 51.5582 237.66 53.5303C238.589 55.5023 239.862 56.9986 241.478 58.019C243.095 59.0394 244.935 59.5496 246.999 59.5496C248.914 59.5496 250.582 59.1598 252.004 58.3802C253.437 57.6005 254.543 56.4998 255.323 55.0781C256.114 53.6449 256.51 51.9595 256.51 50.0219L257.885 50.2798H247.807V45.8943H261.652V49.9015C261.652 52.8596 261.021 55.4278 259.76 57.6062C258.51 59.7732 256.779 61.4472 254.566 62.6281C252.365 63.809 249.842 64.3995 246.999 64.3995C243.812 64.3995 241.014 63.6657 238.606 62.1982C236.21 60.7306 234.341 58.6496 233 55.9552C231.658 53.2494 230.987 50.0391 230.987 46.3243C230.987 43.5152 231.377 40.9928 232.157 38.7571C232.937 36.5213 234.032 34.6238 235.442 33.0645C236.864 31.4937 238.532 30.2956 240.446 29.4701C242.373 28.6331 244.477 28.2146 246.758 28.2146C248.661 28.2146 250.433 28.4955 252.072 29.0573C253.723 29.6191 255.191 30.416 256.475 31.4479C257.771 32.4797 258.843 33.7065 259.691 35.1283C260.54 36.5385 261.113 38.1035 261.411 39.8234H255.959ZM268.398 63.918V28.6961H273.712V44.0025H291.271V28.6961H296.603V63.918H291.271V48.56H273.712V63.918H268.398ZM302.605 33.2709V28.6961H329.864V33.2709H318.874V63.918H313.577V33.2709H302.605Z" fill="#620DD9"/>
</svg>
