<svg width="55" height="55" viewBox="0 0 55 55" fill="none" xmlns="http://www.w3.org/2000/svg">
<path d="M30.1728 39.2255C23.7981 36.121 18.5499 31.0315 15.202 24.7697L20.0279 19.7718C20.6202 19.1585 20.8055 18.2619 20.5239 17.4851C19.654 14.999 19.1602 12.3053 19.1118 9.53673C19.0903 8.30876 18.068 7.32164 16.84 7.34313L9.04799 7.47949C7.82002 7.50098 6.8329 8.52327 6.85439 9.75125C7.22128 30.7161 24.5093 47.4094 45.4741 47.0425C46.7021 47.021 47.6892 45.9987 47.6677 44.7707L47.531 36.9564C47.5095 35.7284 46.4872 34.7413 45.2592 34.7628C42.4684 34.8116 39.7814 34.412 37.2663 33.6296C36.4806 33.3977 35.6129 33.5916 34.9987 34.2277L30.1728 39.2255Z" fill="#F6F6F6"/>
</svg>
