<svg width="332" height="67" viewBox="0 0 332 67" fill="none" xmlns="http://www.w3.org/2000/svg">
<path d="M15.8999 66.568C10.9532 66.568 7.06655 65.72 4.23989 64.024C1.41322 62.3987 -0.000112765 60.0667 -0.000112765 57.028C-0.000112765 53.9187 0.918554 51.0567 2.75589 48.442C4.59322 45.7567 6.96055 43.46 9.85789 41.552C12.8259 39.5733 15.8999 38.054 19.0799 36.994C22.3306 35.8633 25.3339 35.298 28.0899 35.298C29.5032 35.298 30.2099 35.51 30.2099 35.934C30.2099 36.57 29.4679 36.888 27.9839 36.888C25.3692 36.888 22.5072 37.524 19.3979 38.796C16.3592 40.068 13.6386 41.8347 11.2359 44.096C9.32789 45.792 7.87922 47.5233 6.88989 49.29C5.97122 50.986 5.51189 52.576 5.51189 54.06C5.51189 56.2507 6.53655 58.088 8.58589 59.572C10.6352 60.9853 13.7092 61.692 17.8079 61.692C20.2106 61.692 22.6486 61.5153 25.1219 61.162C27.5952 60.738 29.8212 60.2787 31.7999 59.784C33.8492 59.2893 35.4039 58.9007 36.4639 58.618C39.0786 57.77 41.6932 56.7453 44.3079 55.544C46.9932 54.3427 49.3959 53 51.5159 51.516C53.6359 49.9613 55.1906 48.4067 56.1799 46.852C56.7452 46.004 57.1339 45.1913 57.3459 44.414C57.6286 43.6367 57.7699 42.8947 57.7699 42.188C57.7699 40.2093 56.8866 38.5487 55.1199 37.206C53.3532 35.7927 51.0919 34.5207 48.3359 33.39C45.5799 32.2593 42.6472 31.1993 39.5379 30.21C36.4286 29.15 33.4959 28.0547 30.7399 26.924C27.9839 25.7933 25.7226 24.5213 23.9559 23.108C22.1892 21.624 21.3059 19.8573 21.3059 17.808C21.3059 15.476 22.1539 13.3913 23.8499 11.554C25.6166 9.64599 27.8426 7.98532 30.5279 6.57199C33.2839 5.08799 36.2166 3.88665 39.3259 2.96798C42.4352 1.97865 45.4032 1.23665 48.2299 0.741988C51.0566 0.247319 53.3886 -1.51396e-05 55.2259 -1.51396e-05C62.9992 -1.51396e-05 66.8859 1.94332 66.8859 5.82999C66.8859 7.38465 66.2499 9.18665 64.9779 11.236C64.4126 12.296 63.5999 13.3207 62.5399 14.31C61.4799 15.2287 60.6672 15.688 60.1019 15.688C59.6779 15.688 59.4659 15.4407 59.4659 14.946C59.4659 14.734 59.8546 14.31 60.6319 13.674C61.4092 12.9673 62.1866 12.1193 62.9639 11.13C63.7412 10.1407 64.1299 9.15132 64.1299 8.16199C64.1299 6.67799 63.2819 5.54732 61.5859 4.76999C59.9606 3.99265 57.8052 3.60399 55.1199 3.60399C53.8479 3.60399 52.0106 3.81599 49.6079 4.23999C47.2052 4.59332 44.5906 5.19399 41.7639 6.04199C38.9372 6.88999 36.2166 8.02065 33.6019 9.43399C28.7259 12.1193 26.2879 14.416 26.2879 16.324C26.2879 17.7373 27.6659 19.08 30.4219 20.352C32.4712 21.2707 34.8386 22.2247 37.5239 23.214C40.2092 24.2033 42.9299 25.2633 45.6859 26.394C48.4419 27.5247 50.9859 28.7967 53.3179 30.21C55.7206 31.6233 57.6286 33.2133 59.0419 34.98C60.5259 36.676 61.2679 38.6193 61.2679 40.81C61.2679 43.778 59.6426 46.8167 56.3919 49.926C53.8479 52.3287 50.8799 54.5547 47.4879 56.604C44.1666 58.6533 40.6332 60.42 36.8879 61.904C33.2132 63.388 29.5739 64.5187 25.9699 65.296C22.3659 66.144 19.0092 66.568 15.8999 66.568ZM63.3814 32.3169V27.7422H90.6405V32.3169H79.6509V62.964H74.3538V32.3169H63.3814ZM119.314 27.7422H124.646V50.9081C124.646 53.3732 124.067 55.5573 122.909 57.4606C121.751 59.3524 120.122 60.8429 118.024 61.9321C115.926 63.0099 113.467 63.5487 110.646 63.5487C107.837 63.5487 105.384 63.0099 103.285 61.9321C101.187 60.8429 99.5592 59.3524 98.4012 57.4606C97.2431 55.5573 96.6641 53.3732 96.6641 50.9081V27.7422H101.978V50.4781C101.978 52.0718 102.328 53.4878 103.027 54.7261C103.738 55.9643 104.742 56.9389 106.037 57.6498C107.333 58.3492 108.869 58.6988 110.646 58.6988C112.435 58.6988 113.977 58.3492 115.273 57.6498C116.58 56.9389 117.577 55.9643 118.265 54.7261C118.964 53.4878 119.314 52.0718 119.314 50.4781V27.7422ZM143.774 62.964H132.372V27.7422H144.135C147.586 27.7422 150.55 28.4473 153.027 29.8575C155.503 31.2563 157.401 33.2685 158.719 35.8941C160.049 38.5082 160.714 41.644 160.714 45.3015C160.714 48.9704 160.044 52.1234 158.702 54.7605C157.372 57.3975 155.446 59.4269 152.924 60.8486C150.401 62.2589 147.351 62.964 143.774 62.964ZM137.686 58.3205H143.482C146.165 58.3205 148.395 57.816 150.172 56.8071C151.949 55.7866 153.279 54.3133 154.162 52.3871C155.045 50.4495 155.486 48.0876 155.486 45.3015C155.486 42.5383 155.045 40.1936 154.162 38.2674C153.29 36.3412 151.989 34.8794 150.258 33.8819C148.527 32.8844 146.377 32.3857 143.809 32.3857H137.686V58.3205ZM162.808 27.7422H168.845L178.046 43.7537H178.424L187.625 27.7422H193.662L180.883 49.1367V62.964H175.586V49.1367L162.808 27.7422ZM230.707 36.9948C230.523 35.3667 229.766 34.1055 228.436 33.2112C227.106 32.3054 225.432 31.8525 223.415 31.8525C221.97 31.8525 220.72 32.0818 219.665 32.5405C218.611 32.9876 217.791 33.6067 217.206 34.3979C216.633 35.1775 216.346 36.0661 216.346 37.0636C216.346 37.9005 216.541 38.6229 216.931 39.2305C217.332 39.8382 217.854 40.3484 218.496 40.7612C219.149 41.1625 219.849 41.5007 220.594 41.7759C221.339 42.0396 222.056 42.2574 222.744 42.4294L226.183 43.3237C227.307 43.5989 228.459 43.9715 229.64 44.4416C230.821 44.9117 231.916 45.5308 232.925 46.299C233.934 47.0672 234.748 48.0188 235.367 49.1539C235.998 50.289 236.313 51.6476 236.313 53.2298C236.313 55.2248 235.797 56.9962 234.765 58.5441C233.745 60.0919 232.26 61.313 230.311 62.2073C228.373 63.1016 226.029 63.5487 223.277 63.5487C220.64 63.5487 218.358 63.1302 216.432 62.2933C214.506 61.4563 212.998 60.2696 211.909 58.7332C210.82 57.1854 210.218 55.3509 210.103 53.2298H215.435C215.538 54.5025 215.951 55.5631 216.673 56.4115C217.407 57.2485 218.341 57.8733 219.476 58.2861C220.623 58.6874 221.878 58.888 223.243 58.888C224.745 58.888 226.08 58.653 227.25 58.1829C228.431 57.7014 229.359 57.0364 230.036 56.1879C230.712 55.328 231.051 54.3248 231.051 53.1782C231.051 52.1349 230.752 51.2807 230.156 50.6157C229.571 49.9507 228.775 49.4004 227.766 48.9647C226.768 48.529 225.639 48.1449 224.378 47.8124L220.216 46.6773C217.395 45.9092 215.159 44.7798 213.508 43.2893C211.869 41.7988 211.049 39.8267 211.049 37.3731C211.049 35.3438 211.599 33.5723 212.7 32.0589C213.801 30.5455 215.291 29.3703 217.172 28.5333C219.052 27.6848 221.173 27.2606 223.535 27.2606C225.92 27.2606 228.024 27.6791 229.847 28.5161C231.681 29.3531 233.126 30.5053 234.181 31.9729C235.235 33.429 235.786 35.103 235.832 36.9948H230.707ZM242.664 62.964V27.7422H264.746V32.3169H247.978V43.0485H263.594V47.606H247.978V58.3893H264.952V62.964H242.664ZM291.055 36.9948C290.871 35.3667 290.115 34.1055 288.785 33.2112C287.455 32.3054 285.781 31.8525 283.763 31.8525C282.318 31.8525 281.068 32.0818 280.014 32.5405C278.959 32.9876 278.139 33.6067 277.554 34.3979C276.981 35.1775 276.694 36.0661 276.694 37.0636C276.694 37.9005 276.889 38.6229 277.279 39.2305C277.68 39.8382 278.202 40.3484 278.844 40.7612C279.498 41.1625 280.197 41.5007 280.942 41.7759C281.688 42.0396 282.404 42.2574 283.092 42.4294L286.532 43.3237C287.655 43.5989 288.808 43.9715 289.989 44.4416C291.17 44.9117 292.264 45.5308 293.273 46.299C294.282 47.0672 295.096 48.0188 295.716 49.1539C296.346 50.289 296.661 51.6476 296.661 53.2298C296.661 55.2248 296.146 56.9962 295.114 58.5441C294.093 60.0919 292.608 61.313 290.659 62.2073C288.722 63.1016 286.377 63.5487 283.625 63.5487C280.988 63.5487 278.707 63.1302 276.78 62.2933C274.854 61.4563 273.347 60.2696 272.257 58.7332C271.168 57.1854 270.566 55.3509 270.451 53.2298H275.783C275.886 54.5025 276.299 55.5631 277.021 56.4115C277.755 57.2485 278.689 57.8733 279.824 58.2861C280.971 58.6874 282.226 58.888 283.591 58.888C285.093 58.888 286.429 58.653 287.598 58.1829C288.779 57.7014 289.708 57.0364 290.384 56.1879C291.061 55.328 291.399 54.3248 291.399 53.1782C291.399 52.1349 291.101 51.2807 290.505 50.6157C289.92 49.9507 289.123 49.4004 288.114 48.9647C287.116 48.529 285.987 48.1449 284.726 47.8124L280.564 46.6773C277.743 45.9092 275.508 44.7798 273.857 43.2893C272.217 41.7988 271.397 39.8267 271.397 37.3731C271.397 35.3438 271.948 33.5723 273.048 32.0589C274.149 30.5455 275.64 29.3703 277.52 28.5333C279.4 27.6848 281.521 27.2606 283.883 27.2606C286.268 27.2606 288.372 27.6791 290.195 28.5161C292.029 29.3531 293.474 30.5053 294.529 31.9729C295.584 33.429 296.134 35.103 296.18 36.9948H291.055ZM303.012 62.964V27.7422H308.326V43.0485H325.885V27.7422H331.217V62.964H325.885V47.606H308.326V62.964H303.012Z" fill="#620DD9"/>
</svg>
